<svg id="Layer_1" enable-background="new 0 0 512 512" height="512" viewBox="0 0 512 512" width="512" xmlns="http://www.w3.org/2000/svg"><g><path d="m194.347 364.401h-7.616l4.518-21.736c1.973-9.495-12.712-12.547-14.686-3.053l-5.153 24.789h-16.838l4.518-21.736c1.973-9.495-12.715-12.547-14.686-3.053l-5.153 24.789h-10.708c-9.697 0-9.697 15 0 15h7.591l-3.648 17.552h-10.674c-9.697 0-9.697 15 0 15h7.555l-4.627 22.258c-1.919 9.233 12.685 12.683 14.686 3.053l5.261-25.311h16.838l-4.627 22.258c-1.919 9.233 12.685 12.683 14.686 3.053l5.261-25.311h10.769c9.697 0 9.697-15 0-15h-7.651l3.648-17.552h10.734c9.699 0 9.699-15 .002-15zm-29.703 32.552h-16.838l3.648-17.552h16.838z"/><path d="m393.167 388.438c0-4.142-3.357-7.5-7.5-7.5h-138.667c-9.931.344-9.923 14.66 0 15h138.667c4.143 0 7.5-3.357 7.5-7.5z"/><path d="m430.67 196.185 12.471 20.157c4.252 4.738 8.504 4.738 12.756 0l12.472-20.157h18.461c13.879 0 25.171-11.292 25.171-25.17v-99.203c0-13.879-11.292-25.171-25.171-25.171h-258.016v-21.471c0-13.879-11.292-25.17-25.171-25.17h-178.472c-13.879 0-25.171 11.292-25.171 25.17v30.765c0 9.697 15 9.697 15 0v-30.765c0-5.608 4.562-10.17 10.171-10.17h178.473c5.608 0 10.171 4.562 10.171 10.17v21.471h-5.458c-13.879 0-25.171 11.292-25.171 25.171v62.73h-106.035c-2.598 0-5.011 1.345-6.378 3.554l-8.292 13.402-8.293-13.402c-1.367-2.209-3.78-3.554-6.378-3.554h-22.64c-5.608 0-10.171-4.562-10.171-10.17v-30.372c0-9.697-15-9.697-15 0v30.373c0 13.879 11.292 25.17 25.171 25.17h18.461l12.473 20.157c4.252 4.738 8.504 4.738 12.756 0l12.471-20.157h101.855v15.497h-16.422c-13.879 0-25.171 11.292-25.171 25.171v53.041h-69.527c-15.163 0-27.5 12.336-27.5 27.5v193.331h-37.066c-4.143 0-7.5 3.358-7.5 7.5 0 22.286 18.132 40.417 40.418 40.417h431.164c22.286 0 40.418-18.131 40.418-40.418 0-4.142-3.357-7.5-7.5-7.5h-37.066v-193.331c0-15.164-12.337-27.5-27.5-27.5h-69.526v-47.067h60.262zm-232.484-124.373c0-5.608 4.562-10.171 10.171-10.171h278.473c5.608 0 10.171 4.562 10.171 10.171v99.202c0 5.608-4.562 10.17-10.171 10.17h-22.64c-2.598 0-5.011 1.344-6.378 3.554l-8.293 13.402-8.292-13.402c-1.367-2.209-3.78-3.554-6.378-3.554h-66.115c-3.636-9.434-12.798-16.145-23.497-16.145h-147.051zm-41.593 118.399c0-5.608 4.562-10.171 10.171-10.171h178.473c5.608 0 10.171 4.562 10.171 10.171v99.202c0 5.608-4.562 10.171-10.171 10.171h-74.492c-2.598 0-5.011 1.345-6.378 3.554l-8.292 13.402-8.293-13.402c-1.367-2.209-3.78-3.554-6.378-3.554h-74.64c-5.608 0-10.171-4.562-10.171-10.171zm-97.027 80.54c0-6.893 5.607-12.5 12.5-12.5h69.526v15h-59.526c-4.143 0-7.5 3.358-7.5 7.5v183.331h-15zm412.016 226.249h-431.164c-11.406 0-21.082-7.551-24.289-17.918h316.014c9.697 0 9.697-15 0-15h-242.577v-175.831h52.026c-.609 14.272 10.851 26.368 25.171 26.332h70.461l12.472 20.156c4.252 4.738 8.504 4.738 12.756 0l12.471-20.156h70.313c14.319.037 25.781-12.06 25.171-26.332h52.026v175.831h-50.444c-9.697 0-9.697 15 0 15h123.882c-3.207 10.367-12.883 17.918-24.289 17.918zm-31.648-238.749c6.893 0 12.5 5.607 12.5 12.5v193.331h-15v-183.331c0-4.142-3.357-7.5-7.5-7.5h-59.526v-15z"/><path d="m57 61.642h92.093c9.697 0 9.697-15 0-15h-92.093c-9.697 0-9.697 15 0 15z"/><path d="m57 98.5h57.407c9.697 0 9.697-15 0-15h-57.407c-9.697 0-9.697 15 0 15z"/><path d="m209.954 229.822h92.092c9.697 0 9.697-15 0-15h-92.092c-9.697 0-9.697 15 0 15z"/><path d="m284.704 251.681h-57.408c-9.697 0-9.697 15 0 15h57.408c9.697 0 9.697-15 0-15z"/><path d="m460.079 101.142c0-4.142-3.357-7.5-7.5-7.5h-212.093c-9.697 0-9.697 15 0 15h212.093c4.143 0 7.5-3.358 7.5-7.5z"/><path d="m452.579 130.5h-60.579c-9.697 0-9.697 15 0 15h60.579c9.697 0 9.697-15 0-15z"/></g></svg>