<svg id="ebre2zo8zegb1" xmlns="http://www.w3.org/2000/svg" xmlns:xlink="http://www.w3.org/1999/xlink" viewBox="0 0 640 480" shape-rendering="geometricPrecision" text-rendering="geometricPrecision" width="640" height="480"><style><![CDATA[#ebre2zo8zegb3_to {animation: ebre2zo8zegb3_to__to 1000ms linear infinite normal forwards}@keyframes ebre2zo8zegb3_to__to { 0% {transform: translate(229.615722px,25.947341px);animation-timing-function: cubic-bezier(0.420000,0,0.580000,1)} 20% {transform: translate(229.615722px,85.090823px);animation-timing-function: cubic-bezier(0.420000,0,0.580000,1)} 40% {transform: translate(229.615722px,25.947341px);animation-timing-function: cubic-bezier(0.420000,0,0.580000,1)} 60% {transform: translate(229.615722px,25.947341px);animation-timing-function: cubic-bezier(0.420000,0,0.580000,1)} 80% {transform: translate(229.615722px,85.090823px);animation-timing-function: cubic-bezier(0.420000,0,0.580000,1)} 100% {transform: translate(229.615722px,25.947341px)} }]]></style><g id="ebre2zo8zegb2"><g id="ebre2zo8zegb3_to" transform="translate(229.615722,25.947341)"><path id="ebre2zo8zegb3" d="M-156.288692,-225.835605C-153.755823,-225.835605,-151.222955,-226.805219,-149.293621,-228.734552L-67.044655,-310.983518L-67.044655,41.104983C-67.044655,46.576374,-62.622029,50.999000,-57.150638,50.999000C-51.679246,50.999000,-47.256621,46.576374,-47.256621,41.104983L-47.256621,-310.983518L34.586691,-229.140207C38.455252,-225.271646,44.708271,-225.271646,48.576831,-229.140207C52.445392,-233.008768,52.445392,-239.261787,48.576831,-243.130347L-50.145674,-341.852852C-51.055923,-342.772996,-52.154159,-343.495259,-53.381017,-343.999854C-55.795157,-344.999150,-58.516012,-344.999150,-60.940046,-343.999854C-62.157011,-343.495259,-63.255247,-342.763102,-64.165496,-341.852852L-163.283762,-242.724693C-167.152323,-238.856132,-167.152323,-232.603113,-163.283762,-228.734552C-161.354428,-226.795325,-158.821560,-225.835605,-156.288692,-225.835605Z" transform="rotate(180) translate(-40.478499,-30.999624)" fill="rgb(255,255,255)" stroke="none" stroke-width="1"/></g><path id="ebre2zo8zegb4" d="M-22.821885,-337.645228C-28.064379,-337.645228,-32.301983,-333.407624,-32.301983,-328.165129C-32.301983,-322.922635,-28.064379,-318.685031,-22.821885,-318.685031L43.538803,-318.685031L43.538803,51.038803L-335.665129,51.038803L-335.665129,-318.685031L-269.304441,-318.685031C-264.061947,-318.685031,-259.824343,-322.922635,-259.824343,-328.165129C-259.824343,-333.407624,-264.061947,-337.645228,-269.304441,-337.645228L-354.625326,-337.645228L-354.625326,69.999000L62.499000,69.999000L62.499000,-337.645228L-22.821885,-337.645228Z" transform="matrix(-1 0 -0 -1 181.38452214863264 69.99899999863280)" fill="rgb(255,255,255)" stroke="none" stroke-width="1"/></g></svg>