<?xml version="1.0" encoding="UTF-8" standalone="no"?>
<svg
   xmlns:dc="http://purl.org/dc/elements/1.1/"
   xmlns:cc="http://creativecommons.org/ns#"
   xmlns:rdf="http://www.w3.org/1999/02/22-rdf-syntax-ns#"
   xmlns:svg="http://www.w3.org/2000/svg"
   xmlns="http://www.w3.org/2000/svg"
   xmlns:sodipodi="http://sodipodi.sourceforge.net/DTD/sodipodi-0.dtd"
   xmlns:inkscape="http://www.inkscape.org/namespaces/inkscape"
   id="Capa_1"
   enable-background="new 0 0 510 510"
   height="512"
   viewBox="0 0 510 510"
   width="512"
   version="1.1"
   sodipodi:docname="milestone.svg"
   inkscape:version="0.92.4 (5da689c313, 2019-01-14)">
  <metadata
     id="metadata17">
    <rdf:RDF>
      <cc:Work
         rdf:about="">
        <dc:format>image/svg+xml</dc:format>
        <dc:type
           rdf:resource="http://purl.org/dc/dcmitype/StillImage" />
      </cc:Work>
    </rdf:RDF>
  </metadata>
  <defs
     id="defs15" />
  <sodipodi:namedview
     pagecolor="#ffffff"
     bordercolor="#666666"
     borderopacity="1"
     objecttolerance="10"
     gridtolerance="10"
     guidetolerance="10"
     inkscape:pageopacity="0"
     inkscape:pageshadow="2"
     inkscape:window-width="683"
     inkscape:window-height="480"
     id="namedview13"
     showgrid="false"
     inkscape:zoom="0.4609375"
     inkscape:cx="256"
     inkscape:cy="256"
     inkscape:window-x="0"
     inkscape:window-y="0"
     inkscape:window-maximized="0"
     inkscape:current-layer="Capa_1" />
  <g
     id="g10"
     style="fill:#ffffff;fill-opacity:1">
    <path
       d="m75 75h30v30h-30z"
       id="path2"
       style="fill:#ffffff;fill-opacity:1" />
    <path
       d="m75 405h30v30h-30z"
       id="path4"
       style="fill:#ffffff;fill-opacity:1" />
    <path
       d="m510 330v-150h-45.935c-7.405-59.114-57.976-105-119.065-105h-166.257c-7.163-42.511-44.227-75-88.743-75-49.626 0-90 40.374-90 90s40.374 90 90 90c44.516 0 81.58-32.489 88.743-75h166.257c44.516 0 81.58 32.489 88.743 75h-73.743v60h-180c-53.187 0-97.259 39.752-104.079 91.104-42.962 6.779-75.921 44.059-75.921 88.896 0 49.626 40.374 90 90 90 44.516 0 81.58-32.489 88.743-75h160.044l-19.394 19.394 21.213 21.213 55.607-55.607-55.606-55.606-21.213 21.213 19.393 19.393h-160.044c-6.27-37.215-35.456-66.746-72.497-73.527 6.389-34.918 37.019-61.473 73.754-61.473h180v60zm-420-180c-33.084 0-60-26.916-60-60s26.916-60 60-60 60 26.916 60 60-26.916 60-60 60zm60 270c0 33.084-26.916 60-60 60s-60-26.916-60-60 26.916-60 60-60 60 26.916 60 60zm240-210h90v90h-90z"
       id="path6"
       style="fill:#ffffff;fill-opacity:1" />
    <path
       d="m420 240h30v30h-30z"
       id="path8"
       style="fill:#ffffff;fill-opacity:1" />
  </g>
</svg>
