<?xml version="1.0" encoding="utf-8"?>
<svg version="1.1" id="Layer_1" xmlns="http://www.w3.org/2000/svg" xmlns:xlink="http://www.w3.org/1999/xlink" x="0px" y="0px"
	 viewBox="0 0 2560 1600" enable-background="new 0 0 2560 1600" xml:space="preserve">
<pattern  width="300" height="300" patternUnits="userSpaceOnUse" id="New_Pattern" viewBox="42.027 -600.249 300 300" overflow="visible">
	<g>
		<rect x="42.027" y="-600.249" fill="none" width="300" height="300"/>
		<g>
			<path fill="none" stroke="#000000" stroke-miterlimit="10" d="M343.58-300.256c9.568,22.702,1.313,46.717-1.126,70.356
				c-1.407,12.477,0.844,24.343,5.108,35.56c2.132,5.608,4.767,11.054,7.7,16.333c2.933,5.279,6.176,10.388,9.541,15.321
				c2.662,4.153,5.238,8.242,7.578,12.238c17.353,25.613,11.161,56.945,3.657,85.463c-6.191,23.827-18.011,44.278-30.206,64.728"/>
			<path fill="none" stroke="#000000" stroke-miterlimit="10" d="M345.831-0.256c2.65-5.697,5.276-11.426,8.002-17.216
				c7.066-14.956,13.451-30.34,17.052-47.147c4.352-20.068,7.589-41.276,2.188-60.926c-2.09-7.603-5.514-14.843-10.061-21.971
				c-2.455-3.849-4.823-7.944-7.427-11.978c-3.178-4.923-6.307-9.938-9.014-15.171c-2.702-5.219-5.109-10.598-6.852-16.202
				c-1.307-4.204-2.293-8.503-3.01-12.857c-1.3-7.899-1.553-16.017-0.444-24.359c0.113-0.846,0.226-1.694,0.35-2.541
				c3.513-23.887,12.319-47.144,6.965-69.632"/>
			<path fill="none" stroke="#000000" stroke-miterlimit="10" d="M345.831-0.256c1.895-5.683,3.771-11.43,5.988-17.225
				c5.789-14.983,11.173-30.332,13.913-46.772c3.312-19.649,5.092-40.125-1.523-59.198c-2.524-7.277-6.121-14.245-10.567-21.133
				c-2.441-3.781-4.788-7.766-7.276-11.719c-3.061-4.865-6.005-9.832-8.486-15.021c-2.472-5.159-4.631-10.483-6.004-16.071
				c-1.089-4.43-1.81-8.951-2.31-13.512c-0.908-8.272-0.838-16.725,0.51-25.36c0.137-0.878,0.277-1.758,0.427-2.637
				c4.312-24.926,14.546-48.297,13.077-71.352"/>
			<path fill="none" stroke="#000000" stroke-miterlimit="10" d="M345.831-0.256c1.14-5.67,2.25-11.438,3.975-17.234
				c4.473-15.022,8.896-30.324,10.774-46.397c2.272-19.23,2.614-38.977-5.234-57.471c-2.95-6.952-6.729-13.647-11.073-20.295
				c-2.427-3.714-4.754-7.587-7.125-11.459c-2.945-4.808-5.703-9.727-7.959-14.871c-2.241-5.099-4.134-10.376-5.157-15.939
				c-0.857-4.662-1.326-9.399-1.61-14.166c-0.516-8.646-0.14-17.436,1.464-26.362c0.16-0.911,0.329-1.821,0.505-2.733
				c5.11-25.964,16.772-49.45,19.189-73.073"/>
			<path fill="none" stroke="#000000" stroke-miterlimit="10" d="M345.831-0.256c0.385-5.656,0.737-11.442,1.962-17.243
				c3.178-15.05,6.618-30.316,7.635-46.022c1.233-18.811,0.155-37.837-8.944-55.744c-3.369-6.63-7.339-13.048-11.579-19.457
				c-2.413-3.646-4.719-7.41-6.975-11.2c-2.828-4.751-5.402-9.622-7.432-14.721c-2.011-5.039-3.619-10.273-4.309-15.808
				c-0.61-4.897-0.843-9.848-0.911-14.82c-0.124-9.019,0.582-18.143,2.418-27.363c0.185-0.942,0.38-1.885,0.583-2.828
				c5.908-27.003,18.999-50.603,25.3-74.794"/>
			<path fill="none" stroke="#000000" stroke-miterlimit="10" d="M345.831-0.256c-0.37-5.642-0.776-11.445-0.051-17.252
				c1.882-15.074,4.34-30.308,4.496-45.647c0.193-18.392-2.286-36.709-12.655-54.016c-3.781-6.312-7.95-12.448-12.085-18.619
				c-2.399-3.579-4.684-7.233-6.824-10.94c-2.711-4.695-5.1-9.516-6.904-14.571c-1.78-4.979-3.088-10.171-3.461-15.677
				c-0.348-5.133-0.359-10.296-0.211-15.474c0.269-9.393,1.304-18.85,3.373-28.365c0.211-0.974,0.431-1.949,0.66-2.924
				c6.706-28.042,21.226-51.755,31.412-76.515"/>
			<path fill="none" stroke="#000000" stroke-miterlimit="10" d="M345.831-0.256c-1.126-5.629-2.251-11.445-2.064-17.261
				c1.501-33.208,6.379-66.979-15.009-97.561c-12.946-18.574-27.767-35.647-28.255-58.428c-0.026-5.368,0.124-10.744,0.489-16.128
				c0.729-10.768,2.313-21.567,5.065-32.386c7.505-29.081,23.452-52.908,37.523-78.236"/>
		</g>
		<g>
			<path fill="none" stroke="#000000" stroke-miterlimit="10" d="M193.58-300.256c9.568,22.702,1.313,46.717-1.126,70.356
				c-1.407,12.477,0.844,24.343,5.108,35.56c2.132,5.608,4.767,11.054,7.7,16.333c2.933,5.279,6.176,10.388,9.541,15.321
				c2.662,4.153,5.238,8.242,7.578,12.238c17.353,25.613,11.161,56.945,3.657,85.463c-6.191,23.827-18.011,44.278-30.206,64.728"/>
			<path fill="none" stroke="#000000" stroke-miterlimit="10" d="M195.831-0.256c2.65-5.697,5.276-11.426,8.002-17.216
				c7.066-14.956,13.451-30.34,17.052-47.147c4.352-20.068,7.589-41.276,2.188-60.926c-2.09-7.603-5.514-14.843-10.061-21.971
				c-2.455-3.849-4.823-7.944-7.427-11.978c-3.178-4.923-6.307-9.938-9.014-15.171c-2.702-5.219-5.109-10.598-6.852-16.202
				c-1.307-4.204-2.293-8.503-3.01-12.857c-1.3-7.899-1.553-16.017-0.444-24.359c0.113-0.846,0.226-1.694,0.35-2.541
				c3.513-23.887,12.319-47.144,6.965-69.632"/>
			<path fill="none" stroke="#000000" stroke-miterlimit="10" d="M195.831-0.256c1.895-5.683,3.771-11.43,5.989-17.225
				c5.789-14.983,11.173-30.332,13.913-46.772c3.312-19.649,5.092-40.125-1.523-59.198c-2.524-7.277-6.121-14.245-10.567-21.133
				c-2.441-3.781-4.788-7.766-7.276-11.719c-3.061-4.865-6.005-9.832-8.487-15.021c-2.472-5.159-4.631-10.483-6.004-16.071
				c-1.089-4.43-1.81-8.951-2.31-13.512c-0.908-8.272-0.838-16.725,0.51-25.36c0.137-0.878,0.277-1.758,0.427-2.637
				c4.312-24.926,14.546-48.297,13.077-71.352"/>
			<path fill="none" stroke="#000000" stroke-miterlimit="10" d="M195.831-0.256c1.14-5.67,2.25-11.438,3.975-17.234
				c4.473-15.022,8.896-30.324,10.774-46.397c2.272-19.23,2.614-38.977-5.234-57.471c-2.95-6.952-6.729-13.647-11.073-20.295
				c-2.427-3.714-4.754-7.587-7.125-11.459c-2.945-4.808-5.703-9.727-7.959-14.871c-2.241-5.099-4.134-10.376-5.157-15.939
				c-0.857-4.662-1.326-9.399-1.61-14.166c-0.516-8.646-0.14-17.436,1.464-26.362c0.16-0.911,0.328-1.821,0.505-2.733
				c5.11-25.964,16.772-49.45,19.189-73.073"/>
			<path fill="none" stroke="#000000" stroke-miterlimit="10" d="M195.831-0.256c0.385-5.656,0.737-11.442,1.962-17.243
				c3.178-15.05,6.618-30.316,7.635-46.022c1.233-18.811,0.155-37.837-8.944-55.744c-3.369-6.63-7.339-13.048-11.579-19.457
				c-2.413-3.646-4.719-7.41-6.975-11.2c-2.828-4.751-5.402-9.622-7.432-14.721c-2.011-5.039-3.619-10.273-4.309-15.808
				c-0.61-4.897-0.843-9.848-0.911-14.82c-0.124-9.019,0.582-18.143,2.418-27.363c0.185-0.942,0.38-1.885,0.583-2.828
				c5.908-27.003,18.999-50.603,25.3-74.794"/>
			<path fill="none" stroke="#000000" stroke-miterlimit="10" d="M195.831-0.256c-0.37-5.642-0.776-11.445-0.051-17.252
				c1.882-15.074,4.34-30.308,4.496-45.647c0.193-18.392-2.286-36.709-12.655-54.016c-3.781-6.312-7.95-12.448-12.085-18.619
				c-2.399-3.579-4.684-7.233-6.824-10.94c-2.711-4.695-5.1-9.516-6.904-14.571c-1.78-4.979-3.088-10.171-3.461-15.677
				c-0.348-5.133-0.359-10.296-0.211-15.474c0.269-9.393,1.304-18.85,3.373-28.365c0.211-0.974,0.431-1.949,0.66-2.924
				c6.706-28.042,21.226-51.755,31.412-76.515"/>
			<path fill="none" stroke="#000000" stroke-miterlimit="10" d="M195.831-0.256c-1.126-5.629-2.251-11.445-2.064-17.261
				c1.501-33.208,6.379-66.979-15.009-97.561c-12.946-18.574-27.767-35.647-28.255-58.428c-0.026-5.368,0.124-10.744,0.489-16.128
				c0.729-10.768,2.313-21.567,5.065-32.386c7.505-29.081,23.452-52.908,37.523-78.236"/>
		</g>
		<g>
			<path fill="none" stroke="#000000" stroke-miterlimit="10" d="M43.58-300.256c9.568,22.702,1.313,46.717-1.126,70.356
				c-1.407,12.477,0.844,24.343,5.108,35.56c2.132,5.608,4.767,11.054,7.7,16.333c2.933,5.279,6.176,10.388,9.541,15.321
				c2.662,4.153,5.238,8.242,7.578,12.238c17.353,25.613,11.161,56.945,3.657,85.463C69.846-41.157,58.026-20.706,45.831-0.256"/>
			<path fill="none" stroke="#000000" stroke-miterlimit="10" d="M45.831-0.256c2.65-5.697,5.276-11.426,8.002-17.216
				c7.066-14.956,13.451-30.34,17.052-47.147c4.352-20.068,7.589-41.276,2.188-60.926c-2.09-7.603-5.514-14.843-10.061-21.971
				c-2.455-3.849-4.823-7.944-7.427-11.978c-3.178-4.923-6.307-9.938-9.014-15.171c-2.702-5.219-5.109-10.598-6.852-16.202
				c-1.307-4.204-2.293-8.503-3.01-12.857c-1.3-7.899-1.553-16.017-0.444-24.359c0.113-0.846,0.226-1.694,0.35-2.541
				c3.513-23.887,12.319-47.144,6.965-69.632"/>
			<path fill="none" stroke="#000000" stroke-miterlimit="10" d="M45.831-0.256c1.895-5.683,3.771-11.43,5.989-17.225
				c5.789-14.983,11.173-30.332,13.913-46.772c3.312-19.649,5.092-40.125-1.523-59.198c-2.524-7.277-6.121-14.245-10.567-21.133
				c-2.441-3.781-4.788-7.766-7.276-11.719c-3.061-4.865-6.005-9.832-8.487-15.021c-2.472-5.159-4.631-10.483-6.004-16.071
				c-1.089-4.43-1.81-8.951-2.31-13.512c-0.908-8.272-0.838-16.725,0.51-25.36c0.137-0.878,0.277-1.758,0.427-2.637
				c4.312-24.926,14.546-48.297,13.077-71.352"/>
			<path fill="none" stroke="#000000" stroke-miterlimit="10" d="M45.831-0.256c1.14-5.67,2.25-11.438,3.975-17.234
				c4.473-15.022,8.896-30.324,10.774-46.397c2.272-19.23,2.614-38.977-5.234-57.471c-2.95-6.952-6.729-13.647-11.073-20.295
				c-2.427-3.714-4.754-7.587-7.125-11.459c-2.945-4.808-5.703-9.727-7.959-14.871c-2.241-5.099-4.134-10.376-5.157-15.939
				c-0.857-4.662-1.326-9.399-1.61-14.166c-0.516-8.646-0.14-17.436,1.464-26.362c0.16-0.911,0.329-1.821,0.505-2.733
				c5.11-25.964,16.772-49.45,19.189-73.073"/>
			<path fill="none" stroke="#000000" stroke-miterlimit="10" d="M45.831-0.256c0.385-5.656,0.737-11.442,1.962-17.243
				c3.178-15.05,6.618-30.316,7.635-46.022c1.233-18.811,0.155-37.837-8.944-55.744c-3.369-6.63-7.339-13.048-11.579-19.457
				c-2.413-3.646-4.719-7.41-6.975-11.2c-2.828-4.751-5.402-9.622-7.432-14.721c-2.011-5.039-3.619-10.273-4.309-15.808
				c-0.61-4.897-0.843-9.848-0.911-14.82c-0.124-9.019,0.582-18.143,2.418-27.363c0.185-0.942,0.38-1.885,0.583-2.828
				c5.908-27.003,18.999-50.603,25.3-74.794"/>
			<path fill="none" stroke="#000000" stroke-miterlimit="10" d="M45.831-0.256c-0.37-5.642-0.776-11.445-0.051-17.252
				c1.882-15.074,4.34-30.308,4.496-45.647c0.193-18.392-2.286-36.709-12.655-54.016c-3.781-6.312-7.95-12.448-12.085-18.619
				c-2.399-3.579-4.684-7.233-6.824-10.94c-2.711-4.695-5.1-9.516-6.904-14.571c-1.78-4.979-3.088-10.171-3.461-15.677
				c-0.348-5.133-0.359-10.296-0.211-15.474c0.269-9.393,1.304-18.85,3.373-28.365c0.211-0.974,0.431-1.949,0.66-2.924
				c6.706-28.042,21.226-51.755,31.412-76.515"/>
			<path fill="none" stroke="#000000" stroke-miterlimit="10" d="M45.831-0.256c-1.126-5.629-2.251-11.445-2.064-17.261
				c1.501-33.208,6.379-66.979-15.009-97.561c-12.946-18.574-27.767-35.647-28.255-58.428c-0.026-5.368,0.124-10.744,0.489-16.128
				C1.72-200.402,3.305-211.2,6.056-222.02c7.505-29.081,23.452-52.908,37.523-78.236"/>
		</g>
		<g>
			<path fill="none" stroke="#000000" stroke-miterlimit="10" d="M268.58-450.256c9.568,22.702,1.313,46.717-1.126,70.356
				c-1.407,12.477,0.844,24.343,5.108,35.56c2.132,5.608,4.767,11.055,7.7,16.333c2.933,5.279,6.176,10.388,9.541,15.321
				c2.662,4.153,5.238,8.242,7.578,12.238c17.353,25.613,11.161,56.945,3.657,85.463c-6.191,23.827-18.011,44.278-30.206,64.728"/>
			<path fill="none" stroke="#000000" stroke-miterlimit="10" d="M270.831-150.256c2.65-5.697,5.276-11.426,8.002-17.216
				c7.066-14.956,13.451-30.34,17.052-47.147c4.352-20.068,7.589-41.276,2.188-60.926c-2.09-7.603-5.514-14.843-10.061-21.971
				c-2.455-3.849-4.823-7.944-7.427-11.978c-3.178-4.923-6.307-9.938-9.014-15.171c-2.702-5.219-5.109-10.598-6.852-16.202
				c-1.307-4.204-2.293-8.503-3.01-12.858c-1.3-7.899-1.553-16.017-0.444-24.359c0.113-0.846,0.226-1.694,0.35-2.541
				c3.513-23.887,12.319-47.144,6.965-69.632"/>
			<path fill="none" stroke="#000000" stroke-miterlimit="10" d="M270.831-150.256c1.895-5.683,3.771-11.43,5.988-17.225
				c5.789-14.983,11.173-30.332,13.913-46.772c3.312-19.649,5.092-40.125-1.523-59.198c-2.524-7.277-6.121-14.245-10.567-21.133
				c-2.441-3.781-4.788-7.766-7.276-11.719c-3.061-4.865-6.005-9.832-8.486-15.021c-2.472-5.159-4.631-10.483-6.004-16.071
				c-1.089-4.43-1.81-8.951-2.31-13.512c-0.908-8.272-0.838-16.725,0.51-25.36c0.137-0.878,0.277-1.758,0.427-2.637
				c4.312-24.926,14.546-48.297,13.077-71.352"/>
			<path fill="none" stroke="#000000" stroke-miterlimit="10" d="M270.831-150.256c1.14-5.67,2.25-11.438,3.975-17.234
				c4.473-15.022,8.896-30.324,10.774-46.397c2.272-19.23,2.614-38.977-5.234-57.471c-2.95-6.952-6.729-13.647-11.073-20.295
				c-2.427-3.714-4.754-7.587-7.125-11.459c-2.945-4.808-5.703-9.727-7.959-14.871c-2.241-5.099-4.134-10.376-5.157-15.939
				c-0.857-4.662-1.326-9.399-1.61-14.166c-0.516-8.646-0.14-17.436,1.464-26.362c0.16-0.911,0.328-1.821,0.505-2.733
				c5.11-25.964,16.772-49.45,19.189-73.073"/>
			<path fill="none" stroke="#000000" stroke-miterlimit="10" d="M270.831-150.256c0.385-5.656,0.737-11.442,1.962-17.243
				c3.178-15.05,6.618-30.316,7.635-46.022c1.233-18.811,0.155-37.837-8.944-55.744c-3.369-6.63-7.339-13.048-11.579-19.457
				c-2.413-3.646-4.719-7.41-6.975-11.2c-2.828-4.751-5.402-9.622-7.432-14.721c-2.011-5.039-3.619-10.273-4.309-15.808
				c-0.61-4.897-0.843-9.848-0.911-14.82c-0.124-9.019,0.582-18.143,2.418-27.363c0.185-0.942,0.38-1.885,0.583-2.828
				c5.908-27.003,18.999-50.603,25.3-74.794"/>
			<path fill="none" stroke="#000000" stroke-miterlimit="10" d="M270.831-150.256c-0.37-5.642-0.776-11.445-0.051-17.252
				c1.882-15.074,4.34-30.308,4.496-45.647c0.193-18.392-2.286-36.709-12.655-54.016c-3.781-6.312-7.95-12.448-12.085-18.619
				c-2.399-3.579-4.684-7.233-6.824-10.94c-2.711-4.695-5.1-9.516-6.904-14.571c-1.78-4.979-3.088-10.171-3.461-15.677
				c-0.348-5.133-0.359-10.296-0.211-15.474c0.269-9.393,1.304-18.85,3.373-28.365c0.211-0.974,0.431-1.949,0.66-2.924
				c6.706-28.042,21.226-51.755,31.412-76.515"/>
			<path fill="none" stroke="#000000" stroke-miterlimit="10" d="M270.831-150.256c-1.126-5.629-2.251-11.445-2.064-17.261
				c1.501-33.208,6.379-66.979-15.009-97.561c-12.946-18.574-27.767-35.647-28.255-58.428c-0.026-5.368,0.124-10.744,0.489-16.128
				c0.729-10.768,2.313-21.567,5.065-32.386c7.505-29.081,23.452-52.908,37.523-78.236"/>
		</g>
		<g>
			<path fill="none" stroke="#000000" stroke-miterlimit="10" d="M118.58-450.256c9.568,22.702,1.313,46.717-1.126,70.356
				c-1.407,12.477,0.844,24.343,5.108,35.56c2.132,5.608,4.767,11.055,7.7,16.333c2.933,5.279,6.176,10.388,9.541,15.321
				c2.662,4.153,5.238,8.242,7.578,12.238c17.353,25.613,11.161,56.945,3.657,85.463c-6.191,23.827-18.011,44.278-30.206,64.728"/>
			<path fill="none" stroke="#000000" stroke-miterlimit="10" d="M120.831-150.256c2.65-5.697,5.276-11.426,8.002-17.216
				c7.066-14.956,13.451-30.34,17.052-47.147c4.352-20.068,7.589-41.276,2.188-60.926c-2.09-7.603-5.514-14.843-10.061-21.971
				c-2.455-3.849-4.823-7.944-7.427-11.978c-3.178-4.923-6.307-9.938-9.014-15.171c-2.702-5.219-5.109-10.598-6.852-16.202
				c-1.307-4.204-2.293-8.503-3.01-12.858c-1.3-7.899-1.553-16.017-0.444-24.359c0.113-0.846,0.226-1.694,0.35-2.541
				c3.513-23.887,12.319-47.144,6.965-69.632"/>
			<path fill="none" stroke="#000000" stroke-miterlimit="10" d="M120.831-150.256c1.895-5.683,3.771-11.43,5.989-17.225
				c5.789-14.983,11.173-30.332,13.913-46.772c3.312-19.649,5.092-40.125-1.523-59.198c-2.524-7.277-6.121-14.245-10.567-21.133
				c-2.441-3.781-4.788-7.766-7.276-11.719c-3.061-4.865-6.005-9.832-8.487-15.021c-2.472-5.159-4.631-10.483-6.004-16.071
				c-1.089-4.43-1.81-8.951-2.31-13.512c-0.908-8.272-0.838-16.725,0.51-25.36c0.137-0.878,0.277-1.758,0.427-2.637
				c4.312-24.926,14.546-48.297,13.077-71.352"/>
			<path fill="none" stroke="#000000" stroke-miterlimit="10" d="M120.831-150.256c1.14-5.67,2.25-11.438,3.975-17.234
				c4.473-15.022,8.896-30.324,10.774-46.397c2.272-19.23,2.614-38.977-5.234-57.471c-2.95-6.952-6.729-13.647-11.073-20.295
				c-2.427-3.714-4.754-7.587-7.125-11.459c-2.945-4.808-5.703-9.727-7.959-14.871c-2.241-5.099-4.134-10.376-5.157-15.939
				c-0.857-4.662-1.326-9.399-1.61-14.166c-0.516-8.646-0.14-17.436,1.464-26.362c0.16-0.911,0.328-1.821,0.505-2.733
				c5.11-25.964,16.772-49.45,19.189-73.073"/>
			<path fill="none" stroke="#000000" stroke-miterlimit="10" d="M120.831-150.256c0.385-5.656,0.737-11.442,1.962-17.243
				c3.178-15.05,6.618-30.316,7.635-46.022c1.233-18.811,0.155-37.837-8.944-55.744c-3.369-6.63-7.339-13.048-11.579-19.457
				c-2.413-3.646-4.719-7.41-6.975-11.2c-2.828-4.751-5.402-9.622-7.432-14.721c-2.011-5.039-3.619-10.273-4.309-15.808
				c-0.61-4.897-0.843-9.848-0.911-14.82c-0.124-9.019,0.582-18.143,2.418-27.363c0.185-0.942,0.38-1.885,0.583-2.828
				c5.908-27.003,18.999-50.603,25.3-74.794"/>
			<path fill="none" stroke="#000000" stroke-miterlimit="10" d="M120.831-150.256c-0.37-5.642-0.776-11.445-0.051-17.252
				c1.882-15.074,4.34-30.308,4.496-45.647c0.193-18.392-2.286-36.709-12.655-54.016c-3.781-6.312-7.95-12.448-12.085-18.619
				c-2.399-3.579-4.684-7.233-6.824-10.94c-2.711-4.695-5.1-9.516-6.904-14.571c-1.78-4.979-3.088-10.171-3.461-15.677
				c-0.348-5.133-0.359-10.296-0.211-15.474c0.269-9.393,1.304-18.85,3.373-28.365c0.211-0.974,0.431-1.949,0.66-2.924
				c6.706-28.042,21.226-51.755,31.412-76.515"/>
			<path fill="none" stroke="#000000" stroke-miterlimit="10" d="M120.831-150.256c-1.126-5.629-2.251-11.445-2.064-17.261
				c1.501-33.208,6.379-66.979-15.009-97.561c-12.946-18.574-27.767-35.647-28.255-58.428c-0.026-5.368,0.124-10.744,0.489-16.128
				c0.729-10.768,2.313-21.567,5.065-32.386c7.505-29.081,23.452-52.908,37.523-78.236"/>
		</g>
		<g>
			<path fill="none" stroke="#000000" stroke-miterlimit="10" d="M343.58-600.256c9.568,22.702,1.313,46.717-1.126,70.357
				c-1.407,12.477,0.844,24.343,5.108,35.56c2.132,5.608,4.767,11.055,7.7,16.333c2.933,5.279,6.176,10.388,9.541,15.321
				c2.662,4.153,5.238,8.242,7.578,12.238c17.353,25.613,11.161,56.945,3.657,85.463c-6.191,23.827-18.011,44.278-30.206,64.728"/>
			<path fill="none" stroke="#000000" stroke-miterlimit="10" d="M345.831-300.256c2.65-5.697,5.276-11.426,8.002-17.216
				c7.066-14.956,13.451-30.34,17.052-47.147c4.352-20.068,7.589-41.276,2.188-60.926c-2.09-7.603-5.514-14.843-10.061-21.971
				c-2.455-3.849-4.823-7.944-7.427-11.978c-3.178-4.923-6.307-9.938-9.014-15.171c-2.702-5.219-5.109-10.598-6.852-16.202
				c-1.307-4.204-2.293-8.503-3.01-12.858c-1.3-7.899-1.553-16.017-0.444-24.359c0.113-0.846,0.226-1.694,0.35-2.541
				c3.513-23.887,12.319-47.144,6.965-69.632"/>
			<path fill="none" stroke="#000000" stroke-miterlimit="10" d="M345.831-300.256c1.895-5.684,3.771-11.43,5.988-17.225
				c5.789-14.983,11.173-30.332,13.913-46.772c3.312-19.649,5.092-40.125-1.523-59.198c-2.524-7.277-6.121-14.245-10.567-21.133
				c-2.441-3.781-4.788-7.766-7.276-11.719c-3.061-4.865-6.005-9.832-8.486-15.021c-2.472-5.159-4.631-10.483-6.004-16.071
				c-1.089-4.43-1.81-8.951-2.31-13.512c-0.908-8.272-0.838-16.725,0.51-25.36c0.137-0.878,0.277-1.758,0.427-2.637
				c4.312-24.926,14.546-48.297,13.077-71.353"/>
			<path fill="none" stroke="#000000" stroke-miterlimit="10" d="M345.831-300.256c1.14-5.67,2.25-11.438,3.975-17.234
				c4.473-15.022,8.896-30.324,10.774-46.397c2.272-19.23,2.614-38.977-5.234-57.471c-2.95-6.952-6.729-13.647-11.073-20.295
				c-2.427-3.714-4.754-7.587-7.125-11.459c-2.945-4.808-5.703-9.727-7.959-14.871c-2.241-5.099-4.134-10.376-5.157-15.939
				c-0.857-4.662-1.326-9.399-1.61-14.166c-0.516-8.646-0.14-17.436,1.464-26.362c0.16-0.911,0.329-1.821,0.505-2.732
				c5.11-25.964,16.772-49.45,19.189-73.073"/>
			<path fill="none" stroke="#000000" stroke-miterlimit="10" d="M345.831-300.256c0.385-5.656,0.737-11.442,1.962-17.243
				c3.178-15.05,6.618-30.316,7.635-46.022c1.233-18.811,0.155-37.837-8.944-55.744c-3.369-6.63-7.339-13.048-11.579-19.457
				c-2.413-3.646-4.719-7.41-6.975-11.2c-2.828-4.751-5.402-9.622-7.432-14.721c-2.011-5.039-3.619-10.273-4.309-15.808
				c-0.61-4.897-0.843-9.848-0.911-14.82c-0.124-9.019,0.582-18.143,2.418-27.363c0.185-0.942,0.38-1.885,0.583-2.828
				c5.908-27.003,18.999-50.603,25.3-74.794"/>
			<path fill="none" stroke="#000000" stroke-miterlimit="10" d="M345.831-300.256c-0.37-5.642-0.776-11.445-0.051-17.252
				c1.882-15.074,4.34-30.308,4.496-45.647c0.193-18.392-2.286-36.709-12.655-54.017c-3.781-6.312-7.95-12.448-12.085-18.619
				c-2.399-3.579-4.684-7.233-6.824-10.94c-2.711-4.695-5.1-9.516-6.904-14.571c-1.78-4.979-3.088-10.171-3.461-15.677
				c-0.348-5.133-0.359-10.296-0.211-15.474c0.269-9.393,1.304-18.85,3.373-28.365c0.211-0.974,0.431-1.949,0.66-2.924
				c6.706-28.042,21.226-51.755,31.412-76.515"/>
			<path fill="none" stroke="#000000" stroke-miterlimit="10" d="M345.831-300.256c-1.126-5.629-2.251-11.445-2.064-17.261
				c1.501-33.208,6.379-66.979-15.009-97.561c-12.946-18.574-27.767-35.647-28.255-58.428c-0.026-5.368,0.124-10.744,0.489-16.128
				c0.729-10.768,2.313-21.567,5.065-32.386c7.505-29.081,23.452-52.908,37.523-78.236"/>
		</g>
		<g>
			<path fill="none" stroke="#000000" stroke-miterlimit="10" d="M193.58-600.256c9.568,22.702,1.313,46.717-1.126,70.357
				c-1.407,12.477,0.844,24.343,5.108,35.56c2.132,5.608,4.767,11.055,7.7,16.333c2.933,5.279,6.176,10.388,9.541,15.321
				c2.662,4.153,5.238,8.242,7.578,12.238c17.353,25.613,11.161,56.945,3.657,85.463c-6.191,23.827-18.011,44.278-30.206,64.728"/>
			<path fill="none" stroke="#000000" stroke-miterlimit="10" d="M195.831-300.256c2.65-5.697,5.276-11.426,8.002-17.216
				c7.066-14.956,13.451-30.34,17.052-47.147c4.352-20.068,7.589-41.276,2.188-60.926c-2.09-7.603-5.514-14.843-10.061-21.971
				c-2.455-3.849-4.823-7.944-7.427-11.978c-3.178-4.923-6.307-9.938-9.014-15.171c-2.702-5.219-5.109-10.598-6.852-16.202
				c-1.307-4.204-2.293-8.503-3.01-12.858c-1.3-7.899-1.553-16.017-0.444-24.359c0.113-0.846,0.226-1.694,0.35-2.541
				c3.513-23.887,12.319-47.144,6.965-69.632"/>
			<path fill="none" stroke="#000000" stroke-miterlimit="10" d="M195.831-300.256c1.895-5.684,3.771-11.43,5.989-17.225
				c5.789-14.983,11.173-30.332,13.913-46.772c3.312-19.649,5.092-40.125-1.523-59.198c-2.524-7.277-6.121-14.245-10.567-21.133
				c-2.441-3.781-4.788-7.766-7.276-11.719c-3.061-4.865-6.005-9.832-8.487-15.021c-2.472-5.159-4.631-10.483-6.004-16.071
				c-1.089-4.43-1.81-8.951-2.31-13.512c-0.908-8.272-0.838-16.725,0.51-25.36c0.137-0.878,0.277-1.758,0.427-2.637
				c4.312-24.926,14.546-48.297,13.077-71.353"/>
			<path fill="none" stroke="#000000" stroke-miterlimit="10" d="M195.831-300.256c1.14-5.67,2.25-11.438,3.975-17.234
				c4.473-15.022,8.896-30.324,10.774-46.397c2.272-19.23,2.614-38.977-5.234-57.471c-2.95-6.952-6.729-13.647-11.073-20.295
				c-2.427-3.714-4.754-7.587-7.125-11.459c-2.945-4.808-5.703-9.727-7.959-14.871c-2.241-5.099-4.134-10.376-5.157-15.939
				c-0.857-4.662-1.326-9.399-1.61-14.166c-0.516-8.646-0.14-17.436,1.464-26.362c0.16-0.911,0.328-1.821,0.505-2.732
				c5.11-25.964,16.772-49.45,19.189-73.073"/>
			<path fill="none" stroke="#000000" stroke-miterlimit="10" d="M195.831-300.256c0.385-5.656,0.737-11.442,1.962-17.243
				c3.178-15.05,6.618-30.316,7.635-46.022c1.233-18.811,0.155-37.837-8.944-55.744c-3.369-6.63-7.339-13.048-11.579-19.457
				c-2.413-3.646-4.719-7.41-6.975-11.2c-2.828-4.751-5.402-9.622-7.432-14.721c-2.011-5.039-3.619-10.273-4.309-15.808
				c-0.61-4.897-0.843-9.848-0.911-14.82c-0.124-9.019,0.582-18.143,2.418-27.363c0.185-0.942,0.38-1.885,0.583-2.828
				c5.908-27.003,18.999-50.603,25.3-74.794"/>
			<path fill="none" stroke="#000000" stroke-miterlimit="10" d="M195.831-300.256c-0.37-5.642-0.776-11.445-0.051-17.252
				c1.882-15.074,4.34-30.308,4.496-45.647c0.193-18.392-2.286-36.709-12.655-54.017c-3.781-6.312-7.95-12.448-12.085-18.619
				c-2.399-3.579-4.684-7.233-6.824-10.94c-2.711-4.695-5.1-9.516-6.904-14.571c-1.78-4.979-3.088-10.171-3.461-15.677
				c-0.348-5.133-0.359-10.296-0.211-15.474c0.269-9.393,1.304-18.85,3.373-28.365c0.211-0.974,0.431-1.949,0.66-2.924
				c6.706-28.042,21.226-51.755,31.412-76.515"/>
			<path fill="none" stroke="#000000" stroke-miterlimit="10" d="M195.831-300.256c-1.126-5.629-2.251-11.445-2.064-17.261
				c1.501-33.208,6.379-66.979-15.009-97.561c-12.946-18.574-27.767-35.647-28.255-58.428c-0.026-5.368,0.124-10.744,0.489-16.128
				c0.729-10.768,2.313-21.567,5.065-32.386c7.505-29.081,23.452-52.908,37.523-78.236"/>
		</g>
		<g>
			<path fill="none" stroke="#000000" stroke-miterlimit="10" d="M43.58-600.256c9.568,22.702,1.313,46.717-1.126,70.357
				c-1.407,12.477,0.844,24.343,5.108,35.56c2.132,5.608,4.767,11.055,7.7,16.333c2.933,5.279,6.176,10.388,9.541,15.321
				c2.662,4.153,5.238,8.242,7.578,12.238c17.353,25.613,11.161,56.945,3.657,85.463c-6.191,23.827-18.011,44.278-30.206,64.728"/>
			<path fill="none" stroke="#000000" stroke-miterlimit="10" d="M45.831-300.256c2.65-5.697,5.276-11.426,8.002-17.216
				c7.066-14.956,13.451-30.34,17.052-47.147c4.352-20.068,7.589-41.276,2.188-60.926c-2.09-7.603-5.514-14.843-10.061-21.971
				c-2.455-3.849-4.823-7.944-7.427-11.978c-3.178-4.923-6.307-9.938-9.014-15.171c-2.702-5.219-5.109-10.598-6.852-16.202
				c-1.307-4.204-2.293-8.503-3.01-12.858c-1.3-7.899-1.553-16.017-0.444-24.359c0.113-0.846,0.226-1.694,0.35-2.541
				c3.513-23.887,12.319-47.144,6.965-69.632"/>
			<path fill="none" stroke="#000000" stroke-miterlimit="10" d="M45.831-300.256c1.895-5.684,3.771-11.43,5.989-17.225
				c5.789-14.983,11.173-30.332,13.913-46.772c3.312-19.649,5.092-40.125-1.523-59.198c-2.524-7.277-6.121-14.245-10.567-21.133
				c-2.441-3.781-4.788-7.766-7.276-11.719c-3.061-4.865-6.005-9.832-8.487-15.021c-2.472-5.159-4.631-10.483-6.004-16.071
				c-1.089-4.43-1.81-8.951-2.31-13.512c-0.908-8.272-0.838-16.725,0.51-25.36c0.137-0.878,0.277-1.758,0.427-2.637
				c4.312-24.926,14.546-48.297,13.077-71.353"/>
			<path fill="none" stroke="#000000" stroke-miterlimit="10" d="M45.831-300.256c1.14-5.67,2.25-11.438,3.975-17.234
				c4.473-15.022,8.896-30.324,10.774-46.397c2.272-19.23,2.614-38.977-5.234-57.471c-2.95-6.952-6.729-13.647-11.073-20.295
				c-2.427-3.714-4.754-7.587-7.125-11.459c-2.945-4.808-5.703-9.727-7.959-14.871c-2.241-5.099-4.134-10.376-5.157-15.939
				c-0.857-4.662-1.326-9.399-1.61-14.166c-0.516-8.646-0.14-17.436,1.464-26.362c0.16-0.911,0.329-1.821,0.505-2.732
				c5.11-25.964,16.772-49.45,19.189-73.073"/>
			<path fill="none" stroke="#000000" stroke-miterlimit="10" d="M45.831-300.256c0.385-5.656,0.737-11.442,1.962-17.243
				c3.178-15.05,6.618-30.316,7.635-46.022c1.233-18.811,0.155-37.837-8.944-55.744c-3.369-6.63-7.339-13.048-11.579-19.457
				c-2.413-3.646-4.719-7.41-6.975-11.2c-2.828-4.751-5.402-9.622-7.432-14.721c-2.011-5.039-3.619-10.273-4.309-15.808
				c-0.61-4.897-0.843-9.848-0.911-14.82c-0.124-9.019,0.582-18.143,2.418-27.363c0.185-0.942,0.38-1.885,0.583-2.828
				c5.908-27.003,18.999-50.603,25.3-74.794"/>
			<path fill="none" stroke="#000000" stroke-miterlimit="10" d="M45.831-300.256c-0.37-5.642-0.776-11.445-0.051-17.252
				c1.882-15.074,4.34-30.308,4.496-45.647c0.193-18.392-2.286-36.709-12.655-54.017c-3.781-6.312-7.95-12.448-12.085-18.619
				c-2.399-3.579-4.684-7.233-6.824-10.94c-2.711-4.695-5.1-9.516-6.904-14.571c-1.78-4.979-3.088-10.171-3.461-15.677
				c-0.348-5.133-0.359-10.296-0.211-15.474c0.269-9.393,1.304-18.85,3.373-28.365c0.211-0.974,0.431-1.949,0.66-2.924
				c6.706-28.042,21.226-51.755,31.412-76.515"/>
			<path fill="none" stroke="#000000" stroke-miterlimit="10" d="M45.831-300.256c-1.126-5.629-2.251-11.445-2.064-17.261
				c1.501-33.208,6.379-66.979-15.009-97.561c-12.946-18.574-27.767-35.647-28.255-58.428c-0.026-5.368,0.124-10.744,0.489-16.128
				C1.72-500.402,3.305-511.2,6.056-522.02c7.505-29.081,23.452-52.908,37.523-78.236"/>
		</g>
		<g>
			<path fill="none" stroke="#000000" stroke-miterlimit="10" d="M268.58-750.256c9.568,22.702,1.313,46.717-1.126,70.357
				c-1.407,12.477,0.844,24.343,5.108,35.56c2.132,5.608,4.767,11.055,7.7,16.333c2.933,5.279,6.176,10.388,9.541,15.321
				c2.662,4.153,5.238,8.242,7.578,12.238c17.353,25.613,11.161,56.945,3.657,85.463c-6.191,23.827-18.011,44.278-30.206,64.728"/>
			<path fill="none" stroke="#000000" stroke-miterlimit="10" d="M270.831-450.256c2.65-5.697,5.276-11.426,8.002-17.216
				c7.066-14.956,13.451-30.34,17.052-47.147c4.352-20.068,7.589-41.276,2.188-60.926c-2.09-7.603-5.514-14.843-10.061-21.971
				c-2.455-3.849-4.823-7.944-7.427-11.978c-3.178-4.923-6.307-9.938-9.014-15.171c-2.702-5.219-5.109-10.598-6.852-16.202
				c-1.307-4.204-2.293-8.503-3.01-12.858c-1.3-7.899-1.553-16.017-0.444-24.359c0.113-0.846,0.226-1.694,0.35-2.541
				c3.513-23.887,12.319-47.144,6.965-69.632"/>
			<path fill="none" stroke="#000000" stroke-miterlimit="10" d="M270.831-450.256c1.895-5.684,3.771-11.43,5.988-17.225
				c5.789-14.983,11.173-30.332,13.913-46.772c3.312-19.649,5.092-40.125-1.523-59.198c-2.524-7.277-6.121-14.245-10.567-21.133
				c-2.441-3.781-4.788-7.766-7.276-11.719c-3.061-4.865-6.005-9.832-8.486-15.021c-2.472-5.159-4.631-10.483-6.004-16.071
				c-1.089-4.43-1.81-8.951-2.31-13.512c-0.908-8.272-0.838-16.725,0.51-25.36c0.137-0.878,0.277-1.758,0.427-2.637
				c4.312-24.926,14.546-48.297,13.077-71.353"/>
			<path fill="none" stroke="#000000" stroke-miterlimit="10" d="M270.831-450.256c1.14-5.67,2.25-11.438,3.975-17.234
				c4.473-15.022,8.896-30.324,10.774-46.397c2.272-19.23,2.614-38.977-5.234-57.471c-2.95-6.952-6.729-13.647-11.073-20.295
				c-2.427-3.714-4.754-7.587-7.125-11.459c-2.945-4.807-5.703-9.727-7.959-14.871c-2.241-5.099-4.134-10.376-5.157-15.939
				c-0.857-4.662-1.326-9.399-1.61-14.166c-0.516-8.646-0.14-17.436,1.464-26.362c0.16-0.911,0.328-1.821,0.505-2.732
				c5.11-25.964,16.772-49.45,19.189-73.073"/>
			<path fill="none" stroke="#000000" stroke-miterlimit="10" d="M270.831-450.256c0.385-5.656,0.737-11.442,1.962-17.243
				c3.178-15.05,6.618-30.316,7.635-46.022c1.233-18.811,0.155-37.837-8.944-55.744c-3.369-6.63-7.339-13.048-11.579-19.457
				c-2.413-3.646-4.719-7.41-6.975-11.2c-2.828-4.751-5.402-9.622-7.432-14.721c-2.011-5.039-3.619-10.273-4.309-15.808
				c-0.61-4.897-0.843-9.848-0.911-14.82c-0.124-9.019,0.582-18.143,2.418-27.363c0.185-0.942,0.38-1.885,0.583-2.828
				c5.908-27.003,18.999-50.603,25.3-74.794"/>
			<path fill="none" stroke="#000000" stroke-miterlimit="10" d="M270.831-450.256c-0.37-5.642-0.776-11.445-0.051-17.252
				c1.882-15.074,4.34-30.308,4.496-45.647c0.193-18.392-2.286-36.709-12.655-54.016c-3.781-6.312-7.95-12.448-12.085-18.619
				c-2.399-3.579-4.684-7.233-6.824-10.94c-2.711-4.695-5.1-9.516-6.904-14.571c-1.78-4.979-3.088-10.171-3.461-15.677
				c-0.348-5.133-0.359-10.296-0.211-15.474c0.269-9.393,1.304-18.85,3.373-28.365c0.211-0.974,0.431-1.949,0.66-2.924
				c6.706-28.042,21.226-51.755,31.412-76.515"/>
			<path fill="none" stroke="#000000" stroke-miterlimit="10" d="M270.831-450.256c-1.126-5.629-2.251-11.445-2.064-17.261
				c1.501-33.208,6.379-66.979-15.009-97.561c-12.946-18.574-27.767-35.647-28.255-58.428c-0.026-5.368,0.124-10.744,0.489-16.128
				c0.729-10.768,2.313-21.567,5.065-32.386c7.505-29.081,23.452-52.908,37.523-78.236"/>
		</g>
		<g>
			<path fill="none" stroke="#000000" stroke-miterlimit="10" d="M118.58-750.256c9.568,22.702,1.313,46.717-1.126,70.357
				c-1.407,12.477,0.844,24.343,5.108,35.56c2.132,5.608,4.767,11.055,7.7,16.333c2.933,5.279,6.176,10.388,9.541,15.321
				c2.662,4.153,5.238,8.242,7.578,12.238c17.353,25.613,11.161,56.945,3.657,85.463c-6.191,23.827-18.011,44.278-30.206,64.728"/>
			<path fill="none" stroke="#000000" stroke-miterlimit="10" d="M120.831-450.256c2.65-5.697,5.276-11.426,8.002-17.216
				c7.066-14.956,13.451-30.34,17.052-47.147c4.352-20.068,7.589-41.276,2.188-60.926c-2.09-7.603-5.514-14.843-10.061-21.971
				c-2.455-3.849-4.823-7.944-7.427-11.978c-3.178-4.923-6.307-9.938-9.014-15.171c-2.702-5.219-5.109-10.598-6.852-16.202
				c-1.307-4.204-2.293-8.503-3.01-12.858c-1.3-7.899-1.553-16.017-0.444-24.359c0.113-0.846,0.226-1.694,0.35-2.541
				c3.513-23.887,12.319-47.144,6.965-69.632"/>
			<path fill="none" stroke="#000000" stroke-miterlimit="10" d="M120.831-450.256c1.895-5.684,3.771-11.43,5.989-17.225
				c5.789-14.983,11.173-30.332,13.913-46.772c3.312-19.649,5.092-40.125-1.523-59.198c-2.524-7.277-6.121-14.245-10.567-21.133
				c-2.441-3.781-4.788-7.766-7.276-11.719c-3.061-4.865-6.005-9.832-8.487-15.021c-2.472-5.159-4.631-10.483-6.004-16.071
				c-1.089-4.43-1.81-8.951-2.31-13.512c-0.908-8.272-0.838-16.725,0.51-25.36c0.137-0.878,0.277-1.758,0.427-2.637
				c4.312-24.926,14.546-48.297,13.077-71.353"/>
			<path fill="none" stroke="#000000" stroke-miterlimit="10" d="M120.831-450.256c1.14-5.67,2.25-11.438,3.975-17.234
				c4.473-15.022,8.896-30.324,10.774-46.397c2.272-19.23,2.614-38.977-5.234-57.471c-2.95-6.952-6.729-13.647-11.073-20.295
				c-2.427-3.714-4.754-7.587-7.125-11.459c-2.945-4.807-5.703-9.727-7.959-14.871c-2.241-5.099-4.134-10.376-5.157-15.939
				c-0.857-4.662-1.326-9.399-1.61-14.166c-0.516-8.646-0.14-17.436,1.464-26.362c0.16-0.911,0.328-1.821,0.505-2.732
				c5.11-25.964,16.772-49.45,19.189-73.073"/>
			<path fill="none" stroke="#000000" stroke-miterlimit="10" d="M120.831-450.256c0.385-5.656,0.737-11.442,1.962-17.243
				c3.178-15.05,6.618-30.316,7.635-46.022c1.233-18.811,0.155-37.837-8.944-55.744c-3.369-6.63-7.339-13.048-11.579-19.457
				c-2.413-3.646-4.719-7.41-6.975-11.2c-2.828-4.751-5.402-9.622-7.432-14.721c-2.011-5.039-3.619-10.273-4.309-15.808
				c-0.61-4.897-0.843-9.848-0.911-14.82c-0.124-9.019,0.582-18.143,2.418-27.363c0.185-0.942,0.38-1.885,0.583-2.828
				c5.908-27.003,18.999-50.603,25.3-74.794"/>
			<path fill="none" stroke="#000000" stroke-miterlimit="10" d="M120.831-450.256c-0.37-5.642-0.776-11.445-0.051-17.252
				c1.882-15.074,4.34-30.308,4.496-45.647c0.193-18.392-2.286-36.709-12.655-54.016c-3.781-6.312-7.95-12.448-12.085-18.619
				c-2.399-3.579-4.684-7.233-6.824-10.94c-2.711-4.695-5.1-9.516-6.904-14.571c-1.78-4.979-3.088-10.171-3.461-15.677
				c-0.348-5.133-0.359-10.296-0.211-15.474c0.269-9.393,1.304-18.85,3.373-28.365c0.211-0.974,0.431-1.949,0.66-2.924
				c6.706-28.042,21.226-51.755,31.412-76.515"/>
			<path fill="none" stroke="#000000" stroke-miterlimit="10" d="M120.831-450.256c-1.126-5.629-2.251-11.445-2.064-17.261
				c1.501-33.208,6.379-66.979-15.009-97.561c-12.946-18.574-27.767-35.647-28.255-58.428c-0.026-5.368,0.124-10.744,0.489-16.128
				c0.729-10.768,2.313-21.567,5.065-32.386c7.505-29.081,23.452-52.908,37.523-78.236"/>
		</g>
		<g>
			<path fill="none" stroke="#000000" stroke-miterlimit="10" d="M343.58-900.256c9.568,22.702,1.313,46.717-1.126,70.357
				c-1.407,12.477,0.844,24.343,5.108,35.56c2.132,5.608,4.767,11.055,7.7,16.333c2.933,5.279,6.176,10.388,9.541,15.321
				c2.662,4.153,5.238,8.242,7.578,12.238c17.353,25.613,11.161,56.945,3.657,85.463c-6.191,23.827-18.011,44.278-30.206,64.728"/>
			<path fill="none" stroke="#000000" stroke-miterlimit="10" d="M345.831-600.256c2.65-5.697,5.276-11.426,8.002-17.216
				c7.066-14.956,13.451-30.34,17.052-47.147c4.352-20.068,7.589-41.276,2.188-60.926c-2.09-7.603-5.514-14.843-10.061-21.971
				c-2.455-3.849-4.823-7.944-7.427-11.978c-3.178-4.923-6.307-9.938-9.014-15.171c-2.702-5.219-5.109-10.598-6.852-16.202
				c-1.307-4.204-2.293-8.503-3.01-12.858c-1.3-7.899-1.553-16.017-0.444-24.359c0.113-0.846,0.226-1.694,0.35-2.541
				c3.513-23.887,12.319-47.144,6.965-69.632"/>
			<path fill="none" stroke="#000000" stroke-miterlimit="10" d="M345.831-600.256c1.895-5.683,3.771-11.43,5.988-17.225
				c5.789-14.983,11.173-30.332,13.913-46.772c3.312-19.649,5.092-40.125-1.523-59.198c-2.524-7.277-6.121-14.245-10.567-21.133
				c-2.441-3.781-4.788-7.766-7.276-11.719c-3.061-4.865-6.005-9.832-8.486-15.021c-2.472-5.159-4.631-10.483-6.004-16.071
				c-1.089-4.43-1.81-8.951-2.31-13.512c-0.908-8.272-0.838-16.725,0.51-25.36c0.137-0.878,0.277-1.758,0.427-2.637
				c4.312-24.926,14.546-48.297,13.077-71.353"/>
			<path fill="none" stroke="#000000" stroke-miterlimit="10" d="M345.831-600.256c1.14-5.67,2.25-11.438,3.975-17.234
				c4.473-15.022,8.896-30.324,10.774-46.397c2.272-19.23,2.614-38.977-5.234-57.471c-2.95-6.952-6.729-13.647-11.073-20.295
				c-2.427-3.714-4.754-7.587-7.125-11.459c-2.945-4.807-5.703-9.727-7.959-14.871c-2.241-5.099-4.134-10.376-5.157-15.939
				c-0.857-4.662-1.326-9.399-1.61-14.166c-0.516-8.646-0.14-17.436,1.464-26.362c0.16-0.911,0.329-1.821,0.505-2.732
				c5.11-25.964,16.772-49.45,19.189-73.073"/>
			<path fill="none" stroke="#000000" stroke-miterlimit="10" d="M345.831-600.256c0.385-5.656,0.737-11.442,1.962-17.243
				c3.178-15.05,6.618-30.316,7.635-46.022c1.233-18.811,0.155-37.837-8.944-55.744c-3.369-6.63-7.339-13.048-11.579-19.457
				c-2.413-3.646-4.719-7.41-6.975-11.2c-2.828-4.751-5.402-9.622-7.432-14.721c-2.011-5.039-3.619-10.273-4.309-15.808
				c-0.61-4.897-0.843-9.848-0.911-14.82c-0.124-9.019,0.582-18.143,2.418-27.363c0.185-0.942,0.38-1.885,0.583-2.828
				c5.908-27.003,18.999-50.603,25.3-74.794"/>
			<path fill="none" stroke="#000000" stroke-miterlimit="10" d="M345.831-600.256c-0.37-5.642-0.776-11.445-0.051-17.252
				c1.882-15.075,4.34-30.308,4.496-45.647c0.193-18.392-2.286-36.709-12.655-54.016c-3.781-6.312-7.95-12.448-12.085-18.619
				c-2.399-3.579-4.684-7.233-6.824-10.94c-2.711-4.695-5.1-9.516-6.904-14.571c-1.78-4.979-3.088-10.171-3.461-15.677
				c-0.348-5.133-0.359-10.296-0.211-15.474c0.269-9.393,1.304-18.85,3.373-28.365c0.211-0.974,0.431-1.949,0.66-2.924
				c6.706-28.042,21.226-51.755,31.412-76.515"/>
			<path fill="none" stroke="#000000" stroke-miterlimit="10" d="M345.831-600.256c-1.126-5.628-2.251-11.445-2.064-17.261
				c1.501-33.208,6.379-66.979-15.009-97.561c-12.946-18.574-27.767-35.647-28.255-58.428c-0.026-5.368,0.124-10.744,0.489-16.128
				c0.729-10.768,2.313-21.567,5.065-32.386c7.505-29.081,23.452-52.908,37.523-78.236"/>
		</g>
		<g>
			<path fill="none" stroke="#000000" stroke-miterlimit="10" d="M193.58-900.256c9.568,22.702,1.313,46.717-1.126,70.357
				c-1.407,12.477,0.844,24.343,5.108,35.56c2.132,5.608,4.767,11.055,7.7,16.333c2.933,5.279,6.176,10.388,9.541,15.321
				c2.662,4.153,5.238,8.242,7.578,12.238c17.353,25.613,11.161,56.945,3.657,85.463c-6.191,23.827-18.011,44.278-30.206,64.728"/>
			<path fill="none" stroke="#000000" stroke-miterlimit="10" d="M195.831-600.256c2.65-5.697,5.276-11.426,8.002-17.216
				c7.066-14.956,13.451-30.34,17.052-47.147c4.352-20.068,7.589-41.276,2.188-60.926c-2.09-7.603-5.514-14.843-10.061-21.971
				c-2.455-3.849-4.823-7.944-7.427-11.978c-3.178-4.923-6.307-9.938-9.014-15.171c-2.702-5.219-5.109-10.598-6.852-16.202
				c-1.307-4.204-2.293-8.503-3.01-12.858c-1.3-7.899-1.553-16.017-0.444-24.359c0.113-0.846,0.226-1.694,0.35-2.541
				c3.513-23.887,12.319-47.144,6.965-69.632"/>
			<path fill="none" stroke="#000000" stroke-miterlimit="10" d="M195.831-600.256c1.895-5.683,3.771-11.43,5.989-17.225
				c5.789-14.983,11.173-30.332,13.913-46.772c3.312-19.649,5.092-40.125-1.523-59.198c-2.524-7.277-6.121-14.245-10.567-21.133
				c-2.441-3.781-4.788-7.766-7.276-11.719c-3.061-4.865-6.005-9.832-8.487-15.021c-2.472-5.159-4.631-10.483-6.004-16.071
				c-1.089-4.43-1.81-8.951-2.31-13.512c-0.908-8.272-0.838-16.725,0.51-25.36c0.137-0.878,0.277-1.758,0.427-2.637
				c4.312-24.926,14.546-48.297,13.077-71.353"/>
			<path fill="none" stroke="#000000" stroke-miterlimit="10" d="M195.831-600.256c1.14-5.67,2.25-11.438,3.975-17.234
				c4.473-15.022,8.896-30.324,10.774-46.397c2.272-19.23,2.614-38.977-5.234-57.471c-2.95-6.952-6.729-13.647-11.073-20.295
				c-2.427-3.714-4.754-7.587-7.125-11.459c-2.945-4.807-5.703-9.727-7.959-14.871c-2.241-5.099-4.134-10.376-5.157-15.939
				c-0.857-4.662-1.326-9.399-1.61-14.166c-0.516-8.646-0.14-17.436,1.464-26.362c0.16-0.911,0.328-1.821,0.505-2.732
				c5.11-25.964,16.772-49.45,19.189-73.073"/>
			<path fill="none" stroke="#000000" stroke-miterlimit="10" d="M195.831-600.256c0.385-5.656,0.737-11.442,1.962-17.243
				c3.178-15.05,6.618-30.316,7.635-46.022c1.233-18.811,0.155-37.837-8.944-55.744c-3.369-6.63-7.339-13.048-11.579-19.457
				c-2.413-3.646-4.719-7.41-6.975-11.2c-2.828-4.751-5.402-9.622-7.432-14.721c-2.011-5.039-3.619-10.273-4.309-15.808
				c-0.61-4.897-0.843-9.848-0.911-14.82c-0.124-9.019,0.582-18.143,2.418-27.363c0.185-0.942,0.38-1.885,0.583-2.828
				c5.908-27.003,18.999-50.603,25.3-74.794"/>
			<path fill="none" stroke="#000000" stroke-miterlimit="10" d="M195.831-600.256c-0.37-5.642-0.776-11.445-0.051-17.252
				c1.882-15.075,4.34-30.308,4.496-45.647c0.193-18.392-2.286-36.709-12.655-54.016c-3.781-6.312-7.95-12.448-12.085-18.619
				c-2.399-3.579-4.684-7.233-6.824-10.94c-2.711-4.695-5.1-9.516-6.904-14.571c-1.78-4.979-3.088-10.171-3.461-15.677
				c-0.348-5.133-0.359-10.296-0.211-15.474c0.269-9.393,1.304-18.85,3.373-28.365c0.211-0.974,0.431-1.949,0.66-2.924
				c6.706-28.042,21.226-51.755,31.412-76.515"/>
			<path fill="none" stroke="#000000" stroke-miterlimit="10" d="M195.831-600.256c-1.126-5.628-2.251-11.445-2.064-17.261
				c1.501-33.208,6.379-66.979-15.009-97.561c-12.946-18.574-27.767-35.647-28.255-58.428c-0.026-5.368,0.124-10.744,0.489-16.128
				c0.729-10.768,2.313-21.567,5.065-32.386c7.505-29.081,23.452-52.908,37.523-78.236"/>
		</g>
		<g>
			<path fill="none" stroke="#000000" stroke-miterlimit="10" d="M43.58-900.256c9.568,22.702,1.313,46.717-1.126,70.357
				c-1.407,12.477,0.844,24.343,5.108,35.56c2.132,5.608,4.767,11.055,7.7,16.333c2.933,5.279,6.176,10.388,9.541,15.321
				c2.662,4.153,5.238,8.242,7.578,12.238c17.353,25.613,11.161,56.945,3.657,85.463c-6.191,23.827-18.011,44.278-30.206,64.728"/>
			<path fill="none" stroke="#000000" stroke-miterlimit="10" d="M45.831-600.256c2.65-5.697,5.276-11.426,8.002-17.216
				c7.066-14.956,13.451-30.34,17.052-47.147c4.352-20.068,7.589-41.276,2.188-60.926c-2.09-7.603-5.514-14.843-10.061-21.971
				c-2.455-3.849-4.823-7.944-7.427-11.978c-3.178-4.923-6.307-9.938-9.014-15.171c-2.702-5.219-5.109-10.598-6.852-16.202
				c-1.307-4.204-2.293-8.503-3.01-12.858c-1.3-7.899-1.553-16.017-0.444-24.359c0.113-0.846,0.226-1.694,0.35-2.541
				c3.513-23.887,12.319-47.144,6.965-69.632"/>
			<path fill="none" stroke="#000000" stroke-miterlimit="10" d="M45.831-600.256c1.895-5.683,3.771-11.43,5.989-17.225
				c5.789-14.983,11.173-30.332,13.913-46.772c3.312-19.649,5.092-40.125-1.523-59.198c-2.524-7.277-6.121-14.245-10.567-21.133
				c-2.441-3.781-4.788-7.766-7.276-11.719c-3.061-4.865-6.005-9.832-8.487-15.021c-2.472-5.159-4.631-10.483-6.004-16.071
				c-1.089-4.43-1.81-8.951-2.31-13.512c-0.908-8.272-0.838-16.725,0.51-25.36c0.137-0.878,0.277-1.758,0.427-2.637
				c4.312-24.926,14.546-48.297,13.077-71.353"/>
			<path fill="none" stroke="#000000" stroke-miterlimit="10" d="M45.831-600.256c1.14-5.67,2.25-11.438,3.975-17.234
				c4.473-15.022,8.896-30.324,10.774-46.397c2.272-19.23,2.614-38.977-5.234-57.471c-2.95-6.952-6.729-13.647-11.073-20.295
				c-2.427-3.714-4.754-7.587-7.125-11.459c-2.945-4.807-5.703-9.727-7.959-14.871c-2.241-5.099-4.134-10.376-5.157-15.939
				c-0.857-4.662-1.326-9.399-1.61-14.166c-0.516-8.646-0.14-17.436,1.464-26.362c0.16-0.911,0.329-1.821,0.505-2.732
				c5.11-25.964,16.772-49.45,19.189-73.073"/>
			<path fill="none" stroke="#000000" stroke-miterlimit="10" d="M45.831-600.256c0.385-5.656,0.737-11.442,1.962-17.243
				c3.178-15.05,6.618-30.316,7.635-46.022c1.233-18.811,0.155-37.837-8.944-55.744c-3.369-6.63-7.339-13.048-11.579-19.457
				c-2.413-3.646-4.719-7.41-6.975-11.2c-2.828-4.751-5.402-9.622-7.432-14.721c-2.011-5.039-3.619-10.273-4.309-15.808
				c-0.61-4.897-0.843-9.848-0.911-14.82c-0.124-9.019,0.582-18.143,2.418-27.363c0.185-0.942,0.38-1.885,0.583-2.828
				c5.908-27.003,18.999-50.603,25.3-74.794"/>
			<path fill="none" stroke="#000000" stroke-miterlimit="10" d="M45.831-600.256c-0.37-5.642-0.776-11.445-0.051-17.252
				c1.882-15.075,4.34-30.308,4.496-45.647c0.193-18.392-2.286-36.709-12.655-54.016c-3.781-6.312-7.95-12.448-12.085-18.619
				c-2.399-3.579-4.684-7.233-6.824-10.94c-2.711-4.695-5.1-9.516-6.904-14.571c-1.78-4.979-3.088-10.171-3.461-15.677
				c-0.348-5.133-0.359-10.296-0.211-15.474c0.269-9.393,1.304-18.85,3.373-28.365c0.211-0.974,0.431-1.949,0.66-2.924
				c6.706-28.042,21.226-51.755,31.412-76.515"/>
			<path fill="none" stroke="#000000" stroke-miterlimit="10" d="M45.831-600.256c-1.126-5.628-2.251-11.445-2.064-17.261
				c1.501-33.208,6.379-66.979-15.009-97.561c-12.946-18.574-27.767-35.647-28.255-58.428c-0.026-5.368,0.124-10.744,0.489-16.128
				C1.72-800.402,3.305-811.2,6.056-822.02c7.505-29.081,23.452-52.908,37.523-78.236"/>
		</g>
	</g>
</pattern>
<rect fill="url(#New_Pattern)" width="2560" height="1600"/>
</svg>
