<?xml version="1.0" encoding="UTF-8" standalone="no"?>
<!-- Created with Inkscape (http://www.inkscape.org/) -->

<svg
   xmlns:dc="http://purl.org/dc/elements/1.1/"
   xmlns:cc="http://creativecommons.org/ns#"
   xmlns:rdf="http://www.w3.org/1999/02/22-rdf-syntax-ns#"
   xmlns:svg="http://www.w3.org/2000/svg"
   xmlns="http://www.w3.org/2000/svg"
   xmlns:sodipodi="http://sodipodi.sourceforge.net/DTD/sodipodi-0.dtd"
   xmlns:inkscape="http://www.inkscape.org/namespaces/inkscape"
   width="266.06747mm"
   height="190.78084mm"
   viewBox="0 0 266.06747 190.78084"
   version="1.1"
   id="svg8"
   inkscape:version="0.92.4 (5da689c313, 2019-01-14)"
   sodipodi:docname="nh logo-white.svg">
  <defs
     id="defs2" />
  <sodipodi:namedview
     id="base"
     pagecolor="#ffffff"
     bordercolor="#666666"
     borderopacity="1.0"
     inkscape:pageopacity="0.0"
     inkscape:pageshadow="2"
     inkscape:zoom="0.35"
     inkscape:cx="-932.08089"
     inkscape:cy="542.45385"
     inkscape:document-units="mm"
     inkscape:current-layer="text825"
     showgrid="false"
     inkscape:window-width="1920"
     inkscape:window-height="1017"
     inkscape:window-x="-8"
     inkscape:window-y="-8"
     inkscape:window-maximized="1" />
  <metadata
     id="metadata5">
    <rdf:RDF>
      <cc:Work
         rdf:about="">
        <dc:format>image/svg+xml</dc:format>
        <dc:type
           rdf:resource="http://purl.org/dc/dcmitype/StillImage" />
        <dc:title></dc:title>
      </cc:Work>
    </rdf:RDF>
  </metadata>
  <g
     inkscape:label="Layer 1"
     inkscape:groupmode="layer"
     id="layer1"
     transform="translate(52.009036,-27.820845)">
    <flowRoot
       xml:space="preserve"
       id="flowRoot815"
       style="font-style:normal;font-variant:normal;font-weight:normal;font-stretch:normal;font-size:96px;line-height:126.99999809%;font-family:Vollkorn;-inkscape-font-specification:Vollkorn;font-variant-ligatures:normal;font-variant-caps:normal;font-variant-numeric:normal;font-feature-settings:normal;text-align:start;letter-spacing:0px;word-spacing:0px;writing-mode:lr-tb;text-anchor:start;fill:#000000;fill-opacity:1;stroke:none;stroke-width:1px;stroke-linecap:butt;stroke-linejoin:miter;stroke-opacity:1"
       transform="scale(0.26458333)"><flowRegion
         id="flowRegion817"
         style="font-style:normal;font-variant:normal;font-weight:normal;font-stretch:normal;font-family:Vollkorn;-inkscape-font-specification:Vollkorn"><rect
           id="rect819"
           width="614.28571"
           height="242.85715"
           x="120"
           y="299.66254"
           style="font-style:normal;font-variant:normal;font-weight:normal;font-stretch:normal;font-family:Vollkorn;-inkscape-font-specification:Vollkorn" /></flowRegion><flowPara
         id="flowPara821" /></flowRoot>    <g
       aria-label="NH"
       style="font-style:normal;font-variant:normal;font-weight:bold;font-stretch:normal;font-size:44.91374207px;line-height:126.99999809%;font-family:'Bebas Neue';-inkscape-font-specification:'Bebas Neue, Bold';font-variant-ligatures:normal;font-variant-caps:normal;font-variant-numeric:normal;font-feature-settings:normal;text-align:start;letter-spacing:0px;word-spacing:0px;writing-mode:lr-tb;text-anchor:start;fill:#000000;fill-opacity:1;stroke:none;stroke-width:0.46785143px;stroke-linecap:butt;stroke-linejoin:miter;stroke-opacity:1"
       id="text825"
       transform="matrix(2.7485536,0,0,2.7485536,-76.771825,-113.7836)">
      <path
         style="font-style:normal;font-variant:normal;font-weight:900;font-stretch:normal;font-family:Vollkorn;-inkscape-font-specification:'Vollkorn Heavy';fill:#ffffff;fill-opacity:1;stroke-width:1.01843572px"
         d="m 9.009394,51.519623 c 0,1.489215 0.06185,2.911487 0.187388,4.265321 0.125533,1.28614 0.314372,2.503566 0.565415,3.654322 0.126413,0.01289 0.229259,0.02961 0.350946,0.04325 2.683621,-0.976408 6.145975,0.122644 8.270001,2.792144 l 46.378092,58.29036 c 0.118406,-0.035 0.239047,-0.0637 0.35636,-0.10173 V 73.9596 c 0,-3.993808 0.157372,-6.971796 0.471178,-8.934856 0.313812,-1.963055 0.878182,-3.317438 1.694079,-4.062045 0.878658,-0.812298 2.13439,-1.32033 3.766185,-1.523409 0.313809,-1.353829 0.501575,-2.673093 0.564327,-3.959234 0.06276,-1.286141 0.09424,-2.606575 0.09424,-3.960408 -1.129708,0.06771 -2.667622,0.135598 -4.613222,0.203284 -1.945604,0.06769 -3.734228,0.101642 -5.366023,0.101642 h -4.047807 c -1.569037,-0.06769 -3.138423,-0.101642 -4.707455,-0.101642 -1.506276,-0.06771 -2.699055,-0.135598 -3.577716,-0.203284 0,1.150755 0.0315,2.471189 0.09424,3.960408 0.125512,1.489217 0.314365,2.808479 0.565415,3.959234 2.259404,0.270769 3.95361,0.812753 5.083312,1.625053 1.192467,0.744612 1.977161,2.132924 2.353729,4.163676 0.376574,1.963055 0.565415,4.873159 0.565415,8.731581 V 89.962438 L 32.167565,51.519648 c -1.255227,0.135395 -2.949431,0.237238 -5.083312,0.304919 H 21.529754 17.481948 C 15.850154,51.756877 14.217816,51.722925 12.586022,51.722925 11.01699,51.655215 9.82529,51.587327 9.009394,51.519641 Z"
         id="path837"
         inkscape:connector-curvature="0" />
      <path
         style="font-style:normal;font-variant:normal;font-weight:900;font-stretch:normal;font-family:Vollkorn;-inkscape-font-specification:'Vollkorn Heavy';fill:#ffffff;fill-opacity:1;stroke-width:1.01843572px"
         d="m 17.387714,80.096453 v 18.231865 c 0,3.858422 -0.250712,6.803652 -0.752803,8.834392 -0.43933,1.96307 -1.224027,3.35023 -2.353729,4.16251 -1.066945,0.74463 -2.573387,1.25267 -4.518985,1.52341 -0.313799,1.08307 -0.533043,2.26771 -0.658568,3.55386 -0.06276,1.28615 -0.09424,2.74119 -0.09424,4.36579 0.753134,-0.0676 1.882964,-0.13564 3.38924,-0.20323 1.506269,0 3.074581,-0.0339 4.706375,-0.10174 h 4.047801 3.766183 c 1.443508,0.0676 2.855526,0.10174 4.236277,0.10174 1.380752,0.0676 2.510581,0.13564 3.38924,0.20323 0,-1.35381 -0.0315,-2.74099 -0.09424,-4.16251 -0.06276,-1.42152 -0.250528,-2.67407 -0.564333,-3.75714 -2.008361,-0.27074 -3.577753,-0.77878 -4.707455,-1.52341 -1.066946,-0.81228 -1.788691,-2.19944 -2.165259,-4.16251 -0.376566,-2.03074 -0.565413,-4.97597 -0.565413,-8.834392 v -9.35776 z"
         id="path907"
         inkscape:connector-curvature="0" />
      <path
         style="font-style:normal;font-variant:normal;font-weight:900;font-stretch:normal;font-family:Vollkorn;-inkscape-font-specification:'Vollkorn Heavy';fill:#ffffff;fill-opacity:1;stroke-width:0.84977001px"
         d="m 105.81208,51.519647 c 0,1.289165 -0.0437,2.680747 -0.13089,4.173465 -0.13074,1.492712 -0.2838,2.747023 -0.45816,3.76478 -1.22058,0.271405 -2.13575,0.712582 -2.74603,1.323235 -0.6103,0.542805 -1.0023,1.561269 -1.17666,3.053981 -0.21796,1.492718 -0.32726,3.765487 -0.32726,6.818767 v 30.940305 c 0,3.12113 0.10934,5.49598 0.32726,7.12439 0.17436,1.56058 0.56636,2.64592 1.17666,3.25657 0.61028,0.54285 1.50435,0.88187 2.68132,1.0176 0.17437,0.94991 0.32665,2.20538 0.45743,3.76595 0.13074,1.56058 0.19636,2.951 0.19636,4.17229 -1.52572,-0.13582 -3.40052,-0.23787 -5.62373,-0.30562 h -6.734938 -6.146594 c -1.874468,0.0679 -3.290935,0.1699 -4.249955,0.30562 0,-1.35701 0.04368,-2.78144 0.130882,-4.27416 0.08721,-1.56058 0.217594,-2.78203 0.391962,-3.66408 1.176992,-0.13571 2.092148,-0.4748 2.746033,-1.0176 0.610284,-0.61065 1.0249,-1.69599 1.242857,-3.25657 0.217957,-1.62841 0.32652,-4.00326 0.32652,-7.12439 V 90.041031 c -0.84654,-0.179397 -16.147597,-0.04812 -17.138209,-0.171475 6.496438,-1.112573 1.137826,-10.132282 17.138209,-8.85697 V 70.653875 c 0,-3.05328 -0.108603,-5.326049 -0.32652,-6.818767 -0.217957,-1.560563 -0.632573,-2.613052 -1.242857,-3.155857 -0.610283,-0.610654 -1.503584,-1.017799 -2.680577,-1.221359 -0.30515,-1.357009 -0.479285,-2.679374 -0.522873,-3.968539 -0.04353,-1.289162 -0.06552,-2.612692 -0.06552,-3.969706 0.871844,0.06787 1.983002,0.135918 3.334362,0.203762 1.307759,0 2.659397,0.03406 4.054348,0.101883 h 3.661624 3.92345 c 1.569317,-0.06785 3.073226,-0.101883 4.511766,-0.101883 1.43855,-0.06787 2.5286,-0.135916 3.26966,-0.203762 z"
         id="path909"
         inkscape:connector-curvature="0"
         sodipodi:nodetypes="cccccsscccccccccccccscccscccccccccccc" />
      <flowRoot
         xml:space="preserve"
         id="flowRoot839"
         style="font-style:normal;font-variant:normal;font-weight:bold;font-stretch:normal;font-size:96px;line-height:126.99999809%;font-family:Vollkorn;-inkscape-font-specification:'Vollkorn Bold';font-variant-ligatures:normal;font-variant-caps:normal;font-variant-numeric:normal;font-feature-settings:normal;text-align:start;letter-spacing:0px;word-spacing:0px;writing-mode:lr-tb;text-anchor:start;fill:#000000;fill-opacity:1;stroke:none;stroke-width:1px;stroke-linecap:butt;stroke-linejoin:miter;stroke-opacity:1"
         transform="matrix(0.09626275,0,0,0.09626275,31.422371,75.773152)"><flowRegion
           id="flowRegion841"
           style="font-style:normal;font-variant:normal;font-weight:bold;font-stretch:normal;font-family:Vollkorn;-inkscape-font-specification:'Vollkorn Bold'"><rect
             id="rect843"
             width="1068.7413"
             height="779.83777"
             x="-62.629456"
             y="-93.935814"
             style="font-style:normal;font-variant:normal;font-weight:bold;font-stretch:normal;font-family:Vollkorn;-inkscape-font-specification:'Vollkorn Bold'" /></flowRegion><flowPara
           id="flowPara845" /></flowRoot>      <flowRoot
         xml:space="preserve"
         id="flowRoot847"
         style="font-style:normal;font-variant:normal;font-weight:bold;font-stretch:normal;font-size:96px;line-height:126.99999809%;font-family:'Bebas Neue';-inkscape-font-specification:'Bebas Neue, Bold';font-variant-ligatures:normal;font-variant-caps:normal;font-variant-numeric:normal;font-feature-settings:normal;text-align:start;letter-spacing:0px;word-spacing:0px;writing-mode:lr-tb;text-anchor:start;fill:#000000;fill-opacity:1;stroke:none;stroke-width:1px;stroke-linecap:butt;stroke-linejoin:miter;stroke-opacity:1"
         transform="matrix(0.09626275,0,0,0.09626275,31.422371,75.773152)"><flowRegion
           id="flowRegion849"><rect
             id="rect851"
             width="343.45187"
             height="466.69046"
             x="127.27922"
             y="35.363712" /></flowRegion><flowPara
           id="flowPara853" /></flowRoot>    </g>
    <g
       aria-label="Brand Portfolio"
       transform="matrix(0.224326,0,0,0.224326,2.7620578,31.470792)"
       style="font-style:normal;font-variant:normal;font-weight:bold;font-stretch:normal;font-size:74.66666412px;line-height:126.99999809%;font-family:'Bebas Neue';-inkscape-font-specification:'Bebas Neue, Bold';font-variant-ligatures:normal;font-variant-caps:normal;font-variant-numeric:normal;font-feature-settings:normal;text-align:start;letter-spacing:0px;word-spacing:0px;writing-mode:lr-tb;text-anchor:start;fill:#0b1754;fill-opacity:0.92964825;stroke:none;stroke-width:1px;stroke-linecap:butt;stroke-linejoin:miter;stroke-opacity:1"
       id="flowRoot925" />
  </g>
</svg>
