<?xml version="1.0" encoding="UTF-8" standalone="no"?>
<!-- Created with Inkscape (http://www.inkscape.org/) -->

<svg
   xmlns:dc="http://purl.org/dc/elements/1.1/"
   xmlns:cc="http://creativecommons.org/ns#"
   xmlns:rdf="http://www.w3.org/1999/02/22-rdf-syntax-ns#"
   xmlns:svg="http://www.w3.org/2000/svg"
   xmlns="http://www.w3.org/2000/svg"
   xmlns:sodipodi="http://sodipodi.sourceforge.net/DTD/sodipodi-0.dtd"
   xmlns:inkscape="http://www.inkscape.org/namespaces/inkscape"
   width="357.88831mm"
   height="247.39677mm"
   viewBox="0 0 357.8883 247.39678"
   version="1.1"
   id="svg8"
   inkscape:version="0.92.4 (5da689c313, 2019-01-14)"
   sodipodi:docname="nh logo-grey.svg">
  <defs
     id="defs2" />
  <sodipodi:namedview
     id="base"
     pagecolor="#ffffff"
     bordercolor="#666666"
     borderopacity="1.0"
     inkscape:pageopacity="0.0"
     inkscape:pageshadow="2"
     inkscape:zoom="0.175"
     inkscape:cx="1744.857"
     inkscape:cy="-1025.7228"
     inkscape:document-units="mm"
     inkscape:current-layer="text825"
     showgrid="false"
     inkscape:window-width="1920"
     inkscape:window-height="1017"
     inkscape:window-x="-8"
     inkscape:window-y="-8"
     inkscape:window-maximized="1" />
  <metadata
     id="metadata5">
    <rdf:RDF>
      <cc:Work
         rdf:about="">
        <dc:format>image/svg+xml</dc:format>
        <dc:type
           rdf:resource="http://purl.org/dc/dcmitype/StillImage" />
        <dc:title />
      </cc:Work>
    </rdf:RDF>
  </metadata>
  <g
     inkscape:label="Layer 1"
     inkscape:groupmode="layer"
     id="layer1"
     transform="translate(92.474007,-27.820845)">
    <flowRoot
       xml:space="preserve"
       id="flowRoot815"
       style="font-style:normal;font-variant:normal;font-weight:normal;font-stretch:normal;font-size:96px;line-height:126.99999809%;font-family:Vollkorn;-inkscape-font-specification:Vollkorn;font-variant-ligatures:normal;font-variant-caps:normal;font-variant-numeric:normal;font-feature-settings:normal;text-align:start;letter-spacing:0px;word-spacing:0px;writing-mode:lr-tb;text-anchor:start;fill:#000000;fill-opacity:1;stroke:none;stroke-width:1px;stroke-linecap:butt;stroke-linejoin:miter;stroke-opacity:1"
       transform="scale(0.26458333)"><flowRegion
         id="flowRegion817"
         style="font-style:normal;font-variant:normal;font-weight:normal;font-stretch:normal;font-family:Vollkorn;-inkscape-font-specification:Vollkorn"><rect
           id="rect819"
           width="614.28571"
           height="242.85715"
           x="120"
           y="299.66254"
           style="font-style:normal;font-variant:normal;font-weight:normal;font-stretch:normal;font-family:Vollkorn;-inkscape-font-specification:Vollkorn" /></flowRegion><flowPara
         id="flowPara821" /></flowRoot>    <g
       aria-label="NH"
       style="font-style:normal;font-variant:normal;font-weight:bold;font-stretch:normal;font-size:44.91374207px;line-height:126.99999809%;font-family:'Bebas Neue';-inkscape-font-specification:'Bebas Neue, Bold';font-variant-ligatures:normal;font-variant-caps:normal;font-variant-numeric:normal;font-feature-settings:normal;text-align:start;letter-spacing:0px;word-spacing:0px;writing-mode:lr-tb;text-anchor:start;fill:#000000;fill-opacity:1;stroke:none;stroke-width:0.46785143px;stroke-linecap:butt;stroke-linejoin:miter;stroke-opacity:1"
       id="text825"
       transform="matrix(2.7485536,0,0,2.7485536,-76.771825,-113.7836)">
      <path
         style="font-style:normal;font-variant:normal;font-weight:900;font-stretch:normal;font-family:Vollkorn;-inkscape-font-specification:'Vollkorn Heavy';fill:#1e1e1e;fill-opacity:1;stroke-width:1.01843572px"
         d="m 9.009394,51.519623 c 0,1.489215 0.06185,2.911487 0.187388,4.265321 0.125533,1.28614 0.314372,2.503566 0.565415,3.654322 0.126413,0.01289 0.229259,0.02961 0.350946,0.04325 2.683621,-0.976408 6.145975,0.122644 8.270001,2.792144 l 46.378092,58.29036 c 0.118406,-0.035 0.239047,-0.0637 0.35636,-0.10173 V 73.9596 c 0,-3.993808 0.157372,-6.971796 0.471178,-8.934856 0.313812,-1.963055 0.878182,-3.317438 1.694079,-4.062045 0.878658,-0.812298 2.13439,-1.32033 3.766185,-1.523409 0.313809,-1.353829 0.501575,-2.673093 0.564327,-3.959234 0.06276,-1.286141 0.09424,-2.606575 0.09424,-3.960408 -1.129708,0.06771 -2.667622,0.135598 -4.613222,0.203284 -1.945604,0.06769 -3.734228,0.101642 -5.366023,0.101642 h -4.047807 c -1.569037,-0.06769 -3.138423,-0.101642 -4.707455,-0.101642 -1.506276,-0.06771 -2.699055,-0.135598 -3.577716,-0.203284 0,1.150755 0.0315,2.471189 0.09424,3.960408 0.125512,1.489217 0.314365,2.808479 0.565415,3.959234 2.259404,0.270769 3.95361,0.812753 5.083312,1.625053 1.192467,0.744612 1.977161,2.132924 2.353729,4.163676 0.376574,1.963055 0.565415,4.873159 0.565415,8.731581 V 89.962438 L 32.167565,51.519648 c -1.255227,0.135395 -2.949431,0.237238 -5.083312,0.304919 H 21.529754 17.481948 C 15.850154,51.756877 14.217816,51.722925 12.586022,51.722925 11.01699,51.655215 9.82529,51.587327 9.009394,51.519641 Z"
         id="path837"
         inkscape:connector-curvature="0" />
      <path
         style="font-style:normal;font-variant:normal;font-weight:900;font-stretch:normal;font-family:Vollkorn;-inkscape-font-specification:'Vollkorn Heavy';fill:#1e1e1e;fill-opacity:1;stroke-width:1.01843572px"
         d="m 17.387714,80.096453 v 18.231865 c 0,3.858422 -0.250712,6.803652 -0.752803,8.834392 -0.43933,1.96307 -1.224027,3.35023 -2.353729,4.16251 -1.066945,0.74463 -2.573387,1.25267 -4.518985,1.52341 -0.313799,1.08307 -0.533043,2.26771 -0.658568,3.55386 -0.06276,1.28615 -0.09424,2.74119 -0.09424,4.36579 0.753134,-0.0676 1.882964,-0.13564 3.38924,-0.20323 1.506269,0 3.074581,-0.0339 4.706375,-0.10174 h 4.047801 3.766183 c 1.443508,0.0676 2.855526,0.10174 4.236277,0.10174 1.380752,0.0676 2.510581,0.13564 3.38924,0.20323 0,-1.35381 -0.0315,-2.74099 -0.09424,-4.16251 -0.06276,-1.42152 -0.250528,-2.67407 -0.564333,-3.75714 -2.008361,-0.27074 -3.577753,-0.77878 -4.707455,-1.52341 -1.066946,-0.81228 -1.788691,-2.19944 -2.165259,-4.16251 -0.376566,-2.03074 -0.565413,-4.97597 -0.565413,-8.834392 v -9.35776 z"
         id="path907"
         inkscape:connector-curvature="0" />
      <path
         style="font-style:normal;font-variant:normal;font-weight:900;font-stretch:normal;font-family:Vollkorn;-inkscape-font-specification:'Vollkorn Heavy';fill:#1e1e1e;fill-opacity:1;stroke-width:0.84977001px"
         d="m 105.81208,51.519647 c 0,1.289165 -0.0437,2.680747 -0.13089,4.173465 -0.13074,1.492712 -0.2838,2.747023 -0.45816,3.76478 -1.22058,0.271405 -2.13575,0.712582 -2.74603,1.323235 -0.6103,0.542805 -1.0023,1.561269 -1.17666,3.053981 -0.21796,1.492718 -0.32726,3.765487 -0.32726,6.818767 v 30.940305 c 0,3.12113 0.10934,5.49598 0.32726,7.12439 0.17436,1.56058 0.56636,2.64592 1.17666,3.25657 0.61028,0.54285 1.50435,0.88187 2.68132,1.0176 0.17437,0.94991 0.32665,2.20538 0.45743,3.76595 0.13074,1.56058 0.19636,2.951 0.19636,4.17229 -1.52572,-0.13582 -3.40052,-0.23787 -5.62373,-0.30562 h -6.734938 -6.146594 c -1.874468,0.0679 -3.290935,0.1699 -4.249955,0.30562 0,-1.35701 0.04368,-2.78144 0.130882,-4.27416 0.08721,-1.56058 0.217594,-2.78203 0.391962,-3.66408 1.176992,-0.13571 2.092148,-0.4748 2.746033,-1.0176 0.610284,-0.61065 1.0249,-1.69599 1.242857,-3.25657 0.217957,-1.62841 0.32652,-4.00326 0.32652,-7.12439 V 90.041031 c -0.84654,-0.179397 -16.147597,-0.04812 -17.138209,-0.171475 6.496438,-1.112573 1.137826,-10.132282 17.138209,-8.85697 V 70.653875 c 0,-3.05328 -0.108603,-5.326049 -0.32652,-6.818767 -0.217957,-1.560563 -0.632573,-2.613052 -1.242857,-3.155857 -0.610283,-0.610654 -1.503584,-1.017799 -2.680577,-1.221359 -0.30515,-1.357009 -0.479285,-2.679374 -0.522873,-3.968539 -0.04353,-1.289162 -0.06552,-2.612692 -0.06552,-3.969706 0.871844,0.06787 1.983002,0.135918 3.334362,0.203762 1.307759,0 2.659397,0.03406 4.054348,0.101883 h 3.661624 3.92345 c 1.569317,-0.06785 3.073226,-0.101883 4.511766,-0.101883 1.43855,-0.06787 2.5286,-0.135916 3.26966,-0.203762 z"
         id="path909"
         inkscape:connector-curvature="0"
         sodipodi:nodetypes="cccccsscccccccccccccscccscccccccccccc" />
      <flowRoot
         xml:space="preserve"
         id="flowRoot839"
         style="font-style:normal;font-variant:normal;font-weight:bold;font-stretch:normal;font-size:96px;line-height:126.99999809%;font-family:Vollkorn;-inkscape-font-specification:'Vollkorn Bold';font-variant-ligatures:normal;font-variant-caps:normal;font-variant-numeric:normal;font-feature-settings:normal;text-align:start;letter-spacing:0px;word-spacing:0px;writing-mode:lr-tb;text-anchor:start;fill:#000000;fill-opacity:1;stroke:none;stroke-width:1px;stroke-linecap:butt;stroke-linejoin:miter;stroke-opacity:1"
         transform="matrix(0.09626275,0,0,0.09626275,31.422371,75.773152)"><flowRegion
           id="flowRegion841"
           style="font-style:normal;font-variant:normal;font-weight:bold;font-stretch:normal;font-family:Vollkorn;-inkscape-font-specification:'Vollkorn Bold'"><rect
             id="rect843"
             width="1068.7413"
             height="779.83777"
             x="-62.629456"
             y="-93.935814"
             style="font-style:normal;font-variant:normal;font-weight:bold;font-stretch:normal;font-family:Vollkorn;-inkscape-font-specification:'Vollkorn Bold'" /></flowRegion><flowPara
           id="flowPara845" /></flowRoot>      <flowRoot
         xml:space="preserve"
         id="flowRoot847"
         style="font-style:normal;font-variant:normal;font-weight:bold;font-stretch:normal;font-size:96px;line-height:126.99999809%;font-family:'Bebas Neue';-inkscape-font-specification:'Bebas Neue, Bold';font-variant-ligatures:normal;font-variant-caps:normal;font-variant-numeric:normal;font-feature-settings:normal;text-align:start;letter-spacing:0px;word-spacing:0px;writing-mode:lr-tb;text-anchor:start;fill:#000000;fill-opacity:1;stroke:none;stroke-width:1px;stroke-linecap:butt;stroke-linejoin:miter;stroke-opacity:1"
         transform="matrix(0.09626275,0,0,0.09626275,31.422371,75.773152)"><flowRegion
           id="flowRegion849"><rect
             id="rect851"
             width="343.45187"
             height="466.69046"
             x="127.27922"
             y="35.363712" /></flowRegion><flowPara
           id="flowPara853" /></flowRoot>      <g
         aria-label="Branding Portfolio"
         transform="matrix(0.16309585,0,0,0.16309585,-6.5270638,6.4477237)"
         style="font-style:normal;font-variant:normal;font-weight:bold;font-stretch:normal;font-size:96px;line-height:126.99999809%;font-family:'Bebas Neue';-inkscape-font-specification:'Bebas Neue, Bold';font-variant-ligatures:normal;font-variant-caps:normal;font-variant-numeric:normal;font-feature-settings:normal;text-align:start;letter-spacing:0px;word-spacing:0px;writing-mode:lr-tb;text-anchor:start;fill:#1e1e1e;fill-opacity:1;stroke:none;stroke-width:1px;stroke-linecap:butt;stroke-linejoin:miter;stroke-opacity:1"
         id="flowRoot829">
        <path
           d="m 5.088,739.14709 q 1.92,0.096 4.704,0.192 2.784,0.096 5.28,0.096 2.4,0 4.992,0 2.592,-0.096 5.184,-0.096 2.592,-0.096 4.896,-0.096 6.336,0 11.136,1.248 4.8,1.248 7.488,4.32 2.784,3.072 2.784,8.544 0,6.048 -3.744,10.368 -3.744,4.32 -10.368,5.376 5.376,0.288 9.6,2.016 4.224,1.632 6.72,5.088 2.496,3.456 2.496,9.216 0,5.28 -2.496,9.6 -2.4,4.32 -7.776,6.816 -5.28,2.496 -13.92,2.496 -2.88,0 -6.72,0 -3.744,0 -7.68,0 -3.84,0.096 -7.2,0.096 -3.36,0.096 -5.472,0.192 0,-1.44 0.096,-2.592 0.096,-1.248 0.384,-2.016 2.592,-0.192 4.032,-0.96 1.44,-0.864 2.016,-2.88 0.672,-2.016 0.672,-5.856 v -37.824 q 0,-3.456 -0.576,-5.184 -0.576,-1.824 -2.016,-2.592 -1.44,-0.768 -4.032,-0.96 -0.288,-0.864 -0.384,-2.112 -0.096,-1.248 -0.096,-2.496 z m 17.664,3.648 v 47.712 q 0,3.936 0.768,5.952 0.768,2.016 2.688,2.688 1.92,0.576 5.184,0.576 6.528,0 9.696,-3.456 3.168,-3.456 3.168,-9.504 0,-4.32 -1.632,-7.104 -1.632,-2.784 -4.512,-4.224 -2.784,-1.44 -6.24,-2.016 -3.36,-0.576 -6.816,-0.576 h -3.84 v -4.608 h 4.608 q 5.76,0 8.832,-1.632 3.168,-1.728 4.416,-4.416 1.248,-2.784 1.248,-5.952 0,-4.704 -2.112,-7.392 -2.112,-2.688 -5.28,-3.744 -3.072,-1.152 -6.144,-1.152 -1.344,0 -2.592,0.192 -1.152,0.192 -2.784,0.672 z"
           style="font-style:normal;font-variant:normal;font-weight:500;font-stretch:normal;font-family:Vollkorn;-inkscape-font-specification:'Vollkorn Medium'"
           id="path838"
           inkscape:connector-curvature="0" />
        <path
           d="m 81.861,789.45109 q 0,4.128 0.864,6.336 0.864,2.208 2.784,3.072 2.016,0.864 5.184,1.152 0.288,0.864 0.384,2.016 0.192,1.152 0.192,2.592 -1.536,-0.096 -3.648,-0.192 -2.112,0 -4.512,-0.096 -2.4,0 -4.8,0 -3.648,0 -7.584,0 -3.936,0.096 -6.144,0.288 0,-1.536 0.096,-2.688 0.096,-1.152 0.48,-1.92 2.592,-0.192 3.936,-0.96 1.44,-0.768 2.016,-2.592 0.576,-1.824 0.576,-5.184 v -8.736 h 10.176 z m 0,-13.248 v 7.776 H 71.685 v -10.656 l 10.176,-9.312 q 0,2.976 -0.576,5.568 -0.576,2.592 -1.152,5.376 z m -2.112,-0.672 q 0.96,-2.592 1.536,-4.416 0.672,-1.92 1.344,-3.072 2.112,-3.36 4.992,-5.568 2.976,-2.208 6.816,-2.208 3.648,0 6.624,2.304 -0.192,1.632 -0.384,3.84 -0.192,2.112 -0.288,4.32 0,2.112 0,3.936 -1.056,0.384 -2.784,0.672 -1.728,0.288 -3.456,0.288 -0.192,-4.32 -1.44,-5.76 -1.152,-1.536 -3.072,-1.536 -1.536,0 -3.456,1.824 -1.824,1.824 -3.072,4.8 -1.248,2.976 -1.248,6.528 z m -8.064,8.448 v -9.984 q 0,-2.496 -0.48,-3.936 -0.384,-1.536 -1.92,-2.304 -1.536,-0.768 -4.704,-0.864 0,-1.152 0.192,-2.208 0.192,-1.056 0.672,-1.92 3.648,-0.192 7.776,-1.152 4.128,-0.96 6.336,-2.112 0.96,0.384 1.632,1.344 0.672,0.96 0.672,3.168 z"
           style="font-style:normal;font-variant:normal;font-weight:500;font-stretch:normal;font-family:Vollkorn;-inkscape-font-specification:'Vollkorn Medium'"
           id="path840"
           inkscape:connector-curvature="0" />
        <path
           d="m 136.4415,805.19509 q -1.152,-0.48 -1.824,-1.728 -0.672,-1.344 -0.672,-3.936 0,-0.96 0.096,-2.208 0.192,-1.344 0.48,-2.496 h 0.288 q -0.384,1.824 -1.536,3.648 -1.056,1.824 -2.688,3.264 -1.728,1.44 -4.32,2.4 -2.592,0.864 -6.144,0.864 -6.144,0 -9.504,-2.688 -3.264,-2.784 -3.264,-7.68 0,-3.744 1.728,-6.336 1.824,-2.688 4.608,-4.416 2.88,-1.824 6.24,-2.88 3.36,-1.056 6.624,-1.632 3.36,-0.672 6.048,-1.056 0,-3.648 -0.192,-5.76 -0.096,-2.112 -0.576,-3.36 -0.384,-1.344 -1.248,-2.304 -1.152,-1.344 -2.592,-2.016 -1.44,-0.672 -3.168,-0.672 -3.072,0 -4.8,1.92 -1.728,1.824 -2.496,4.416 -0.768,2.496 -0.96,4.704 -1.344,0 -3.072,-0.192 -1.728,-0.192 -2.784,-0.576 0.192,-2.496 0.096,-5.472 0,-2.976 -0.576,-5.28 4.032,-2.016 8.64,-3.072 4.608,-1.152 8.544,-1.152 4.128,0 6.912,1.056 2.784,1.056 4.32,2.784 2.4,2.304 3.264,6.144 0.864,3.744 0.864,10.272 v 9.888 q 0,2.784 0.384,4.416 0.48,1.632 1.728,2.4 1.248,0.672 3.744,0.768 0.096,1.152 -0.096,2.496 -0.096,1.344 -0.576,2.496 -2.688,0.096 -5.856,0.864 -3.168,0.768 -5.664,2.112 z m -13.056,-6.24 q 2.112,0 4.224,-1.344 2.112,-1.44 3.552,-4.224 1.44,-2.88 1.44,-7.488 v -3.36 q -2.496,0.384 -5.088,0.96 -2.592,0.576 -4.8,1.632 -2.112,1.056 -3.456,2.784 -1.248,1.728 -1.248,4.608 0,3.36 1.632,4.896 1.632,1.536 3.744,1.536 z"
           style="font-style:normal;font-variant:normal;font-weight:500;font-stretch:normal;font-family:Vollkorn;-inkscape-font-specification:'Vollkorn Medium'"
           id="path842"
           inkscape:connector-curvature="0" />
        <path
           d="m 162.6225,783.97909 v -9.984 q 0,-2.496 -0.48,-3.936 -0.384,-1.536 -1.92,-2.304 -1.536,-0.768 -4.704,-0.864 0,-1.152 0.192,-2.208 0.192,-1.056 0.672,-1.92 3.648,-0.192 7.776,-1.152 4.128,-0.96 6.336,-2.112 0.96,0.384 1.632,1.344 0.672,0.96 0.672,3.168 z m 39.168,7.68 q 0,4.896 1.248,6.624 1.344,1.728 4.224,1.728 0.288,0.96 0.384,2.016 0.096,1.056 0.096,2.592 -2.112,-0.192 -4.992,-0.288 -2.88,0 -5.856,0 -2.016,0 -4.32,0 -2.208,0.096 -4.224,0.096 -2.016,0.096 -3.552,0.192 0,-1.44 0.096,-2.592 0.096,-1.152 0.48,-2.016 3.168,0 4.704,-1.824 1.536,-1.824 1.536,-6.72 v -13.344 q 0,-6.624 -2.304,-9.024 -2.304,-2.4 -6.144,-2.4 -2.4,0 -4.8,1.632 -2.4,1.632 -4.032,5.088 -1.536,3.456 -1.536,9.12 v 9.12 q 0,4.8 1.344,6.624 1.44,1.728 4.896,1.728 0.384,0.96 0.48,2.112 0.096,1.056 0.096,2.496 -1.344,-0.096 -3.36,-0.192 -2.016,0 -4.224,-0.096 -2.208,0 -4.32,0 -2.016,0 -4.32,0 -2.208,0.096 -4.32,0.096 -2.112,0.096 -3.552,0.192 0,-1.44 0.096,-2.592 0.192,-1.248 0.48,-2.016 3.744,0 5.088,-1.728 1.44,-1.824 1.44,-6.624 v -17.664 l 10.176,-9.984 q 0,1.152 -0.192,2.592 -0.096,1.44 -0.576,3.072 0.384,-0.672 0.768,-1.44 0.384,-0.768 1.056,-1.632 1.728,-2.208 5.28,-4.416 3.552,-2.208 8.448,-2.208 3.744,0 7.008,1.536 3.264,1.44 5.184,4.896 2.016,3.36 2.016,9.216 z"
           style="font-style:normal;font-variant:normal;font-weight:500;font-stretch:normal;font-family:Vollkorn;-inkscape-font-specification:'Vollkorn Medium'"
           id="path844"
           inkscape:connector-curvature="0" />
        <path
           d="m 239.445,759.49909 q 2.592,0 4.608,0.48 2.016,0.384 4.32,1.152 v 7.776 q -1.92,-2.016 -4.032,-3.264 -2.112,-1.344 -5.28,-1.344 -2.016,0 -4.32,0.768 -2.208,0.768 -4.32,2.784 -2.112,1.92 -3.456,5.568 -1.248,3.552 -1.248,9.312 0,5.664 1.632,9.12 1.632,3.456 3.936,5.184 2.4,1.632 4.608,1.632 2.784,0 5.28,-1.728 2.592,-1.728 4.224,-5.568 1.728,-3.936 1.728,-10.464 l 3.072,10.08 q -1.344,3.264 -2.4,5.088 -1.056,1.728 -1.728,2.496 -0.96,1.44 -2.88,2.976 -1.824,1.44 -4.416,2.592 -2.592,1.056 -5.76,1.056 -5.568,0 -9.696,-2.208 -4.032,-2.208 -6.336,-6.816 -2.208,-4.704 -2.208,-12 0,-6.912 3.072,-12.48 3.072,-5.568 8.64,-8.832 5.568,-3.36 12.96,-3.36 z m 17.76,30.912 q 0,2.4 0.384,3.936 0.384,1.536 1.632,2.208 1.344,0.672 3.84,0.672 0.096,1.152 -0.096,2.496 -0.096,1.344 -0.576,2.496 -2.688,0.096 -6.048,0.864 -3.36,0.768 -5.856,2.112 -1.152,-0.48 -1.92,-1.44 -0.672,-1.056 -0.672,-4.128 0,-1.92 0.384,-3.456 0.384,-1.632 1.056,-4.896 z m 0,-41.184 v 42.816 h -10.08 v -42.816 z m -2.304,-13.728 q 0.96,0.384 1.632,1.344 0.672,0.96 0.672,2.88 v 12.96 h -10.08 v -2.976 q 0,-2.304 -0.48,-3.744 -0.48,-1.536 -2.016,-2.304 -1.536,-0.768 -4.704,-0.768 0,-1.152 0.192,-2.208 0.192,-1.056 0.672,-1.92 2.016,0 4.8,-0.48 2.88,-0.48 5.472,-1.248 2.688,-0.768 3.84,-1.536 z"
           style="font-style:normal;font-variant:normal;font-weight:500;font-stretch:normal;font-family:Vollkorn;-inkscape-font-specification:'Vollkorn Medium'"
           id="path846"
           inkscape:connector-curvature="0" />
        <path
           d="m 269.8935,804.61909 q 0,-1.152 0.096,-2.4 0.192,-1.248 0.48,-2.208 3.84,-0.096 5.184,-1.824 1.344,-1.728 1.344,-6.528 v -17.952 q 0,-2.304 -0.48,-3.744 -0.384,-1.536 -1.92,-2.304 -1.536,-0.768 -4.8,-0.768 0,-1.152 0.192,-2.208 0.288,-1.056 0.768,-1.92 1.92,0 4.8,-0.48 2.88,-0.48 5.472,-1.248 2.592,-0.768 3.84,-1.536 0.96,0.384 1.632,1.344 0.672,0.96 0.672,2.88 v 27.936 q 0,4.8 1.248,6.528 1.344,1.728 4.512,1.824 0.288,0.96 0.384,2.304 0.096,1.344 0.096,2.304 -1.536,-0.096 -3.456,-0.192 -1.92,0 -4.032,-0.096 -2.112,0 -4.128,0 -2.112,0 -4.32,0 -2.112,0.096 -4.128,0.096 -1.92,0.096 -3.456,0.192 z m 11.328,-55.008 q -2.784,0 -4.608,-1.632 -1.728,-1.728 -1.728,-4.224 0,-2.88 1.92,-4.608 1.92,-1.728 4.512,-1.728 2.976,0 4.704,1.728 1.728,1.728 1.728,4.512 0,2.4 -1.92,4.224 -1.824,1.728 -4.608,1.728 z"
           style="font-style:normal;font-variant:normal;font-weight:500;font-stretch:normal;font-family:Vollkorn;-inkscape-font-specification:'Vollkorn Medium'"
           id="path848"
           inkscape:connector-curvature="0" />
        <path
           d="m 307.3725,783.97909 v -9.984 q 0,-2.496 -0.48,-3.936 -0.384,-1.536 -1.92,-2.304 -1.536,-0.768 -4.704,-0.864 0,-1.152 0.192,-2.208 0.192,-1.056 0.672,-1.92 3.648,-0.192 7.776,-1.152 4.128,-0.96 6.336,-2.112 0.96,0.384 1.632,1.344 0.672,0.96 0.672,3.168 z m 39.168,7.68 q 0,4.896 1.248,6.624 1.344,1.728 4.224,1.728 0.288,0.96 0.384,2.016 0.096,1.056 0.096,2.592 -2.112,-0.192 -4.992,-0.288 -2.88,0 -5.856,0 -2.016,0 -4.32,0 -2.208,0.096 -4.224,0.096 -2.016,0.096 -3.552,0.192 0,-1.44 0.096,-2.592 0.096,-1.152 0.48,-2.016 3.168,0 4.704,-1.824 1.536,-1.824 1.536,-6.72 v -13.344 q 0,-6.624 -2.304,-9.024 -2.304,-2.4 -6.144,-2.4 -2.4,0 -4.8,1.632 -2.4,1.632 -4.032,5.088 -1.536,3.456 -1.536,9.12 v 9.12 q 0,4.8 1.344,6.624 1.44,1.728 4.896,1.728 0.384,0.96 0.48,2.112 0.096,1.056 0.096,2.496 -1.344,-0.096 -3.36,-0.192 -2.016,0 -4.224,-0.096 -2.208,0 -4.32,0 -2.016,0 -4.32,0 -2.208,0.096 -4.32,0.096 -2.112,0.096 -3.552,0.192 0,-1.44 0.096,-2.592 0.192,-1.248 0.48,-2.016 3.744,0 5.088,-1.728 1.44,-1.824 1.44,-6.624 v -17.664 l 10.176,-9.984 q 0,1.152 -0.192,2.592 -0.096,1.44 -0.576,3.072 0.384,-0.672 0.768,-1.44 0.384,-0.768 1.056,-1.632 1.728,-2.208 5.28,-4.416 3.552,-2.208 8.448,-2.208 3.744,0 7.008,1.536 3.264,1.44 5.184,4.896 2.016,3.36 2.016,9.216 z"
           style="font-style:normal;font-variant:normal;font-weight:500;font-stretch:normal;font-family:Vollkorn;-inkscape-font-specification:'Vollkorn Medium'"
           id="path850"
           inkscape:connector-curvature="0" />
        <path
           d="m 376.707,828.23509 q -6.144,0 -9.984,-1.536 -3.744,-1.44 -5.472,-4.32 -1.728,-2.784 -1.728,-6.816 0,-3.648 2.016,-6.336 2.016,-2.688 5.664,-4.128 l 5.28,0.576 q -2.208,1.824 -3.072,3.552 -0.768,1.824 -0.768,4.224 0,4.608 2.4,6.912 2.4,2.4 8.16,2.4 6.24,0 9.792,-2.976 3.552,-2.88 3.552,-6.816 0,-2.208 -1.152,-3.552 -1.056,-1.248 -4.224,-1.92 -3.168,-0.576 -9.312,-0.576 -4.224,0 -7.2,-0.48 -2.976,-0.384 -4.896,-1.44 -1.92,-0.96 -2.784,-2.592 -0.864,-1.728 -0.864,-4.32 0,-3.456 1.92,-6.432 1.92,-2.976 4.8,-5.28 l 4.416,2.496 q -1.728,1.44 -2.592,2.784 -0.768,1.248 -0.768,2.304 0,1.728 1.056,2.592 1.152,0.768 4.224,1.056 3.168,0.192 8.928,0.192 6.24,0 10.08,1.056 3.84,1.056 5.664,3.456 1.824,2.304 1.824,6.432 0,3.456 -1.824,6.912 -1.824,3.552 -5.184,6.336 -3.264,2.784 -7.872,4.512 -4.608,1.728 -10.08,1.728 z m 2.592,-37.248 q -4.992,0 -9.216,-1.728 -4.224,-1.728 -6.72,-5.184 -2.4,-3.456 -2.4,-8.64 0,-4.608 2.016,-8.16 2.016,-3.552 6.048,-5.664 4.032,-2.112 9.888,-2.112 5.088,0 8.544,1.632 3.552,1.536 5.856,4.032 2.304,2.4 3.264,5.088 1.056,2.688 1.056,4.896 0,4.32 -2.112,7.968 -2.016,3.648 -6.144,5.76 -4.032,2.112 -10.08,2.112 z m 1.152,-4.8 q 3.072,0 4.992,-2.496 1.92,-2.592 1.92,-7.488 0,-5.088 -2.4,-8.64 -2.304,-3.552 -6.624,-3.552 -3.648,0 -5.376,3.072 -1.728,3.072 -1.728,7.104 0,5.76 2.4,8.928 2.496,3.072 6.816,3.072 z m 22.08,-19.488 q -1.536,-0.384 -3.648,-0.768 -2.016,-0.384 -4.032,-0.672 -1.92,-0.288 -3.456,-0.384 l -7.488,-4.512 h 17.856 q 0.48,1.344 0.576,3.072 0.192,1.632 0.192,3.264 z"
           style="font-style:normal;font-variant:normal;font-weight:500;font-stretch:normal;font-family:Vollkorn;-inkscape-font-specification:'Vollkorn Medium'"
           id="path852"
           inkscape:connector-curvature="0" />
        <path
           d="m 430.0545,804.61909 q 0,-1.536 0.096,-2.688 0.096,-1.152 0.384,-1.92 2.592,-0.192 4.032,-0.96 1.44,-0.768 2.016,-2.592 0.576,-1.824 0.576,-5.184 v -38.784 q 0,-3.456 -0.576,-5.184 -0.576,-1.824 -2.016,-2.592 -1.344,-0.768 -3.936,-0.96 -0.384,-0.864 -0.48,-2.016 -0.096,-1.152 -0.096,-2.592 3.84,0.192 7.392,0.288 3.648,0 6.048,0 1.632,0 4.224,0 2.688,-0.096 5.184,-0.096 2.592,-0.096 3.84,-0.096 8.256,0 13.152,2.592 4.992,2.592 7.104,6.912 2.112,4.224 2.112,9.312 0,5.76 -2.496,10.944 -2.496,5.184 -7.392,8.448 -4.896,3.168 -12.288,3.168 -4.032,0 -6.624,-1.056 -0.288,-1.248 -0.288,-2.304 0.096,-1.056 0.48,-2.112 1.152,0.288 2.304,0.48 1.152,0.096 2.304,0.096 3.36,0 6.24,-1.248 2.88,-1.344 4.608,-4.512 1.824,-3.168 1.824,-9.12 0,-7.488 -3.648,-12.192 -3.552,-4.704 -11.616,-4.704 -1.152,0 -2.496,0.192 -1.344,0.192 -3.648,0.768 l 1.344,-1.536 v 46.08 q 0,4.128 0.864,6.336 0.96,2.208 2.88,3.072 2.016,0.864 5.184,1.152 0.288,0.864 0.384,2.016 0.096,1.152 0.096,2.592 -1.44,-0.096 -3.648,-0.192 -2.112,0 -4.608,-0.096 -2.4,0 -4.8,0 -2.4,0 -5.184,0 -2.688,0.096 -5.088,0.096 -2.304,0.096 -3.744,0.192 z"
           style="font-style:normal;font-variant:normal;font-weight:500;font-stretch:normal;font-family:Vollkorn;-inkscape-font-specification:'Vollkorn Medium'"
           id="path854"
           inkscape:connector-curvature="0" />
        <path
           d="m 506.5785,805.19509 q -6.816,0 -11.904,-2.784 -4.992,-2.88 -7.776,-7.968 -2.688,-5.088 -2.688,-12 0,-6.72 2.88,-11.904 2.976,-5.184 8.064,-8.064 5.088,-2.976 11.52,-2.976 7.2,0 12.192,2.88 4.992,2.88 7.584,7.968 2.592,5.088 2.592,11.904 0,6.624 -2.784,11.904 -2.784,5.184 -7.872,8.16 -4.992,2.88 -11.808,2.88 z m 0.96,-5.088 q 5.376,0 7.968,-4.512 2.592,-4.608 2.592,-11.904 0,-5.952 -1.728,-10.272 -1.632,-4.416 -4.512,-6.624 -2.784,-2.304 -6.144,-2.304 -5.28,0 -7.872,4.416 -2.592,4.416 -2.592,11.328 0,6.144 1.44,10.656 1.536,4.512 4.32,6.912 2.784,2.304 6.528,2.304 z"
           style="font-style:normal;font-variant:normal;font-weight:500;font-stretch:normal;font-family:Vollkorn;-inkscape-font-specification:'Vollkorn Medium'"
           id="path856"
           inkscape:connector-curvature="0" />
        <path
           d="m 553.611,789.45109 q 0,4.128 0.864,6.336 0.864,2.208 2.784,3.072 2.016,0.864 5.184,1.152 0.288,0.864 0.384,2.016 0.192,1.152 0.192,2.592 -1.536,-0.096 -3.648,-0.192 -2.112,0 -4.512,-0.096 -2.4,0 -4.8,0 -3.648,0 -7.584,0 -3.936,0.096 -6.144,0.288 0,-1.536 0.096,-2.688 0.096,-1.152 0.48,-1.92 2.592,-0.192 3.936,-0.96 1.44,-0.768 2.016,-2.592 0.576,-1.824 0.576,-5.184 v -8.736 h 10.176 z m 0,-13.248 v 7.776 h -10.176 v -10.656 l 10.176,-9.312 q 0,2.976 -0.576,5.568 -0.576,2.592 -1.152,5.376 z m -2.112,-0.672 q 0.96,-2.592 1.536,-4.416 0.672,-1.92 1.344,-3.072 2.112,-3.36 4.992,-5.568 2.976,-2.208 6.816,-2.208 3.648,0 6.624,2.304 -0.192,1.632 -0.384,3.84 -0.192,2.112 -0.288,4.32 0,2.112 0,3.936 -1.056,0.384 -2.784,0.672 -1.728,0.288 -3.456,0.288 -0.192,-4.32 -1.44,-5.76 -1.152,-1.536 -3.072,-1.536 -1.536,0 -3.456,1.824 -1.824,1.824 -3.072,4.8 -1.248,2.976 -1.248,6.528 z m -8.064,8.448 v -9.984 q 0,-2.496 -0.48,-3.936 -0.384,-1.536 -1.92,-2.304 -1.536,-0.768 -4.704,-0.864 0,-1.152 0.192,-2.208 0.192,-1.056 0.672,-1.92 3.648,-0.192 7.776,-1.152 4.128,-0.96 6.336,-2.112 0.96,0.384 1.632,1.344 0.672,0.96 0.672,3.168 z"
           style="font-style:normal;font-variant:normal;font-weight:500;font-stretch:normal;font-family:Vollkorn;-inkscape-font-specification:'Vollkorn Medium'"
           id="path858"
           inkscape:connector-curvature="0" />
        <path
           d="m 595.1355,805.19509 q -5.952,0 -8.928,-3.072 -2.88,-3.072 -2.88,-10.08 v -24.768 q -1.44,-0.48 -3.072,-0.768 -1.536,-0.384 -3.84,-0.48 0,-1.344 0.192,-2.4 0.192,-1.056 0.672,-2.304 h 6.048 v -12.384 q 2.304,-0.48 4.512,-1.632 2.304,-1.152 3.84,-2.496 1.056,0.384 1.44,1.248 0.384,0.864 0.384,4.032 v 11.232 h 12.288 q 0,1.152 -0.192,2.4 -0.192,1.248 -0.672,2.4 -3.456,0 -6.336,0.384 -2.784,0.384 -5.088,0.864 v 22.752 q 0,3.36 0.576,5.472 0.672,2.016 1.824,2.976 1.248,0.96 2.976,0.96 1.92,0 3.36,-0.48 1.536,-0.576 2.88,-1.632 1.248,1.536 1.44,3.648 -1.632,1.728 -4.896,2.976 -3.264,1.152 -6.528,1.152 z"
           style="font-style:normal;font-variant:normal;font-weight:500;font-stretch:normal;font-family:Vollkorn;-inkscape-font-specification:'Vollkorn Medium'"
           id="path860"
           inkscape:connector-curvature="0" />
        <path
           d="m 640.104,761.32309 q 0,1.152 -0.192,2.496 -0.192,1.344 -0.768,2.4 -2.784,0 -5.28,0.384 -2.4,0.288 -4.608,0.96 v -6.24 z m -20.16,-3.648 q 0,-7.296 2.88,-12.192 2.976,-4.896 7.68,-7.296 4.8,-2.4 10.08,-2.4 3.84,0 6.048,0.768 2.304,0.672 3.936,1.728 -0.192,2.88 -0.288,5.952 -0.096,2.976 -0.096,5.568 -1.344,0.48 -3.168,0.672 -1.728,0.192 -3.264,0.192 0,-4.128 -1.632,-6.72 -1.632,-2.592 -5.376,-2.592 -2.4,0 -3.936,1.536 -1.44,1.44 -2.112,4.416 -0.672,2.88 -0.672,7.296 v 29.76 h -10.08 z m 1.632,3.648 v 6.144 q -2.496,-0.768 -4.992,-1.056 -2.496,-0.288 -4.224,-0.288 0,-1.344 0.288,-2.496 0.288,-1.248 1.056,-2.304 z m 8.448,28.128 q 0,4.128 0.864,6.336 0.96,2.208 2.88,3.072 2.016,0.864 5.088,1.152 0.384,0.864 0.48,2.016 0.096,1.152 0.096,2.592 -1.536,-0.096 -3.648,-0.192 -2.112,0 -4.512,-0.096 -2.304,0 -4.704,0 -3.648,0 -7.68,0 -3.936,0.096 -6.048,0.288 0,-1.536 0.096,-2.688 0.096,-1.152 0.384,-1.92 2.592,-0.192 4.032,-0.96 1.44,-0.768 2.016,-2.592 0.576,-1.824 0.576,-5.184 v -8.736 h 10.08 z"
           style="font-style:normal;font-variant:normal;font-weight:500;font-stretch:normal;font-family:Vollkorn;-inkscape-font-specification:'Vollkorn Medium'"
           id="path862"
           inkscape:connector-curvature="0" />
        <path
           d="m 669.3285,805.19509 q -6.816,0 -11.904,-2.784 -4.992,-2.88 -7.776,-7.968 -2.688,-5.088 -2.688,-12 0,-6.72 2.88,-11.904 2.976,-5.184 8.064,-8.064 5.088,-2.976 11.52,-2.976 7.2,0 12.192,2.88 4.992,2.88 7.584,7.968 2.592,5.088 2.592,11.904 0,6.624 -2.784,11.904 -2.784,5.184 -7.872,8.16 -4.992,2.88 -11.808,2.88 z m 0.96,-5.088 q 5.376,0 7.968,-4.512 2.592,-4.608 2.592,-11.904 0,-5.952 -1.728,-10.272 -1.632,-4.416 -4.512,-6.624 -2.784,-2.304 -6.144,-2.304 -5.28,0 -7.872,4.416 -2.592,4.416 -2.592,11.328 0,6.144 1.44,10.656 1.536,4.512 4.32,6.912 2.784,2.304 6.528,2.304 z"
           style="font-style:normal;font-variant:normal;font-weight:500;font-stretch:normal;font-family:Vollkorn;-inkscape-font-specification:'Vollkorn Medium'"
           id="path864"
           inkscape:connector-curvature="0" />
        <path
           d="m 697.9515,804.61909 q 0,-1.152 0.096,-2.4 0.096,-1.248 0.384,-2.208 3.84,-0.096 5.184,-1.824 1.44,-1.728 1.44,-6.528 v -42.144 q 0,-2.208 -0.48,-3.648 -0.48,-1.44 -2.016,-2.208 -1.536,-0.768 -4.704,-0.768 0,-1.152 0.192,-2.208 0.192,-1.056 0.672,-1.92 2.016,0 4.896,-0.48 2.88,-0.48 5.376,-1.248 2.592,-0.768 3.84,-1.536 0.96,0.384 1.632,1.344 0.672,0.96 0.672,2.88 v 51.936 q 0,4.8 1.248,6.528 1.344,1.728 4.512,1.824 0.288,0.96 0.384,2.304 0.192,1.344 0.192,2.304 -1.632,-0.096 -3.552,-0.192 -1.92,0 -4.032,-0.096 -2.112,0 -4.128,0 -2.016,0 -4.224,0 -2.208,0.096 -4.128,0.096 -1.92,0.096 -3.456,0.192 z"
           style="font-style:normal;font-variant:normal;font-weight:500;font-stretch:normal;font-family:Vollkorn;-inkscape-font-specification:'Vollkorn Medium'"
           id="path866"
           inkscape:connector-curvature="0" />
        <path
           d="m 727.956,804.61909 q 0,-1.152 0.096,-2.4 0.192,-1.248 0.48,-2.208 3.84,-0.096 5.184,-1.824 1.344,-1.728 1.344,-6.528 v -17.952 q 0,-2.304 -0.48,-3.744 -0.384,-1.536 -1.92,-2.304 -1.536,-0.768 -4.8,-0.768 0,-1.152 0.192,-2.208 0.288,-1.056 0.768,-1.92 1.92,0 4.8,-0.48 2.88,-0.48 5.472,-1.248 2.592,-0.768 3.84,-1.536 0.96,0.384 1.632,1.344 0.672,0.96 0.672,2.88 v 27.936 q 0,4.8 1.248,6.528 1.344,1.728 4.512,1.824 0.288,0.96 0.384,2.304 0.096,1.344 0.096,2.304 -1.536,-0.096 -3.456,-0.192 -1.92,0 -4.032,-0.096 -2.112,0 -4.128,0 -2.112,0 -4.32,0 -2.112,0.096 -4.128,0.096 -1.92,0.096 -3.456,0.192 z m 11.328,-55.008 q -2.784,0 -4.608,-1.632 -1.728,-1.728 -1.728,-4.224 0,-2.88 1.92,-4.608 1.92,-1.728 4.512,-1.728 2.976,0 4.704,1.728 1.728,1.728 1.728,4.512 0,2.4 -1.92,4.224 -1.824,1.728 -4.608,1.728 z"
           style="font-style:normal;font-variant:normal;font-weight:500;font-stretch:normal;font-family:Vollkorn;-inkscape-font-specification:'Vollkorn Medium'"
           id="path868"
           inkscape:connector-curvature="0" />
        <path
           d="m 780.891,805.19509 q -6.816,0 -11.904,-2.784 -4.992,-2.88 -7.776,-7.968 -2.688,-5.088 -2.688,-12 0,-6.72 2.88,-11.904 2.976,-5.184 8.064,-8.064 5.088,-2.976 11.52,-2.976 7.2,0 12.192,2.88 4.992,2.88 7.584,7.968 2.592,5.088 2.592,11.904 0,6.624 -2.784,11.904 -2.784,5.184 -7.872,8.16 -4.992,2.88 -11.808,2.88 z m 0.96,-5.088 q 5.376,0 7.968,-4.512 2.592,-4.608 2.592,-11.904 0,-5.952 -1.728,-10.272 -1.632,-4.416 -4.512,-6.624 -2.784,-2.304 -6.144,-2.304 -5.28,0 -7.872,4.416 -2.592,4.416 -2.592,11.328 0,6.144 1.44,10.656 1.536,4.512 4.32,6.912 2.784,2.304 6.528,2.304 z"
           style="font-style:normal;font-variant:normal;font-weight:500;font-stretch:normal;font-family:Vollkorn;-inkscape-font-specification:'Vollkorn Medium'"
           id="path870"
           inkscape:connector-curvature="0" />
      </g>
    </g>
    <g
       aria-label="Brand Portfolio"
       transform="matrix(0.224326,0,0,0.224326,2.7620578,31.470792)"
       style="font-style:normal;font-variant:normal;font-weight:bold;font-stretch:normal;font-size:74.66666412px;line-height:126.99999809%;font-family:'Bebas Neue';-inkscape-font-specification:'Bebas Neue, Bold';font-variant-ligatures:normal;font-variant-caps:normal;font-variant-numeric:normal;font-feature-settings:normal;text-align:start;letter-spacing:0px;word-spacing:0px;writing-mode:lr-tb;text-anchor:start;fill:#0b1754;fill-opacity:0.92964825;stroke:none;stroke-width:1px;stroke-linecap:butt;stroke-linejoin:miter;stroke-opacity:1"
       id="flowRoot925" />
  </g>
</svg>
