<?xml version="1.0" encoding="UTF-8" standalone="no"?>
<!-- Created with Inkscape (http://www.inkscape.org/) -->

<svg
   xmlns:dc="http://purl.org/dc/elements/1.1/"
   xmlns:cc="http://creativecommons.org/ns#"
   xmlns:rdf="http://www.w3.org/1999/02/22-rdf-syntax-ns#"
   xmlns:svg="http://www.w3.org/2000/svg"
   xmlns="http://www.w3.org/2000/svg"
   xmlns:sodipodi="http://sodipodi.sourceforge.net/DTD/sodipodi-0.dtd"
   xmlns:inkscape="http://www.inkscape.org/namespaces/inkscape"
   width="154.61554mm"
   height="42.011219mm"
   viewBox="0 0 154.61554 42.011218"
   version="1.1"
   id="svg8"
   inkscape:version="0.92.4 (5da689c313, 2019-01-14)"
   sodipodi:docname="NHBRND Portfolio Logo.svg">
  <defs
     id="defs2" />
  <sodipodi:namedview
     id="base"
     pagecolor="#ffffff"
     bordercolor="#666666"
     borderopacity="1.0"
     inkscape:pageopacity="0.0"
     inkscape:pageshadow="2"
     inkscape:zoom="1.28"
     inkscape:cx="201.31105"
     inkscape:cy="-61.7289"
     inkscape:document-units="mm"
     inkscape:current-layer="layer1"
     showgrid="false"
     inkscape:window-width="1915"
     inkscape:window-height="1017"
     inkscape:window-x="-8"
     inkscape:window-y="0"
     inkscape:window-maximized="0" />
  <metadata
     id="metadata5">
    <rdf:RDF>
      <cc:Work
         rdf:about="">
        <dc:format>image/svg+xml</dc:format>
        <dc:type
           rdf:resource="http://purl.org/dc/dcmitype/StillImage" />
        <dc:title />
      </cc:Work>
    </rdf:RDF>
  </metadata>
  <g
     inkscape:label="Layer 1"
     inkscape:groupmode="layer"
     id="layer1"
     transform="translate(-47.467498,-119.32839)">
    <g
       aria-label="NHBRND"
       transform="matrix(0.38429551,0,0,0.38429551,44.460205,110.37767)"
       style="font-style:normal;font-variant:normal;font-weight:bold;font-stretch:normal;font-size:96px;line-height:126.99999809%;font-family:'Bebas Neue';-inkscape-font-specification:'Bebas Neue, Bold';font-variant-ligatures:normal;font-variant-caps:normal;font-variant-numeric:normal;font-feature-settings:normal;text-align:start;letter-spacing:0px;word-spacing:0px;writing-mode:lr-tb;text-anchor:start;fill:#1a1a1a;fill-opacity:1;stroke:none;stroke-width:1px;stroke-linecap:butt;stroke-linejoin:miter;stroke-opacity:1"
       id="flowRoot852">
      <path
         d="m 24.433469,87.323233 v -39.168 l 30.624,39.168 h 16.608 v -64.032 h -16.608 v 39.168 l -30.624,-39.168 H 7.8254688 v 64.032 z"
         style="font-style:normal;font-variant:normal;font-weight:bold;font-stretch:normal;font-family:'Futura PT';-inkscape-font-specification:'Futura PT Bold';fill:#1a1a1a"
         id="path62" />
      <path
         d="M 101.68347,23.291233 H 85.075469 v 64.032 h 16.608001 v -25.92 h 24 v 25.92 h 16.704 v -64.032 h -16.704 v 23.904 h -24 z"
         style="font-style:normal;font-variant:normal;font-weight:bold;font-stretch:normal;font-family:'Futura PT';-inkscape-font-specification:'Futura PT Bold';fill:#1a1a1a"
         id="path64" />
      <path
         d="m 182.45097,87.323233 c 7.872,0 13.92,-2.496 17.376,-6.048 2.4,-2.4 4.704,-6.528 4.704,-12.576 0,-5.088 -1.728,-9.216 -4.32,-11.712 -2.016,-1.92 -5.376,-3.456 -8.736,-3.84 2.4,-1.056 3.84,-2.496 5.184,-4.992 1.344,-2.688 1.824,-5.088 1.824,-7.872 0,-5.664 -1.728,-9.6 -3.936,-12 -3.936,-4.32 -9.408,-4.992 -14.016,-4.992 h -24.768 v 64.032 z m -10.08,-51.264 h 3.072 c 3.264,0 5.28,0.864 6.336,1.92 0.96,1.056 1.536,2.688 1.536,4.32 0,1.44 -0.48,3.168 -1.536,4.224 -1.728,1.824 -4.608,2.016 -6.336,2.016 h -3.072 z m 0,24.864 h 3.456 c 4.128,0 8.256,0.096 10.272,2.112 0.96,0.96 1.632,2.592 1.632,4.608 0,1.824 -0.576,3.264 -1.344,4.128 -1.824,2.112 -5.664,2.592 -10.272,2.592 h -3.744 z"
         style="font-style:normal;font-variant:normal;font-weight:bold;font-stretch:normal;font-family:'Futura PT';-inkscape-font-specification:'Futura PT Bold';fill:#1a1a1a"
         id="path66" />
      <path
         d="m 215.01297,23.291233 v 64.032 h 16.608 v -24.576 l 15.936,24.576 h 20.64 l -20.064,-26.208 c 2.976,-0.576 6.336,-2.016 8.832,-4.416 3.168,-3.072 5.088,-7.872 5.088,-13.344 0,-5.088 -1.824,-10.656 -5.472,-14.4 -4.704,-4.896 -10.848,-5.664 -15.648,-5.664 z m 16.608,12.864 h 3.168 c 3.648,0 6.432,0.96 7.968,2.496 1.44,1.344 2.208,3.456 2.208,5.376 0,2.016 -0.864,4.128 -2.112,5.376 -2.016,1.92 -5.568,2.592 -8.064,2.592 h -3.168 z"
         style="font-style:normal;font-variant:normal;font-weight:bold;font-stretch:normal;font-family:'Futura PT';-inkscape-font-specification:'Futura PT Bold';fill:#1a1a1a"
         id="path68" />
      <path
         d="m 291.80847,87.323233 v -39.168 l 30.624,39.168 h 16.608 v -64.032 h -16.608 v 39.168 l -30.624,-39.168 h -16.608 v 64.032 z"
         style="font-style:normal;font-variant:normal;font-weight:bold;font-stretch:normal;font-family:'Futura PT';-inkscape-font-specification:'Futura PT Bold';fill:#1a1a1a"
         id="path70" />
      <path
         d="m 375.68247,87.323233 c 10.944,0 19.488,-4.608 24.576,-9.696 6.24,-6.24 8.352,-13.728 8.352,-22.176 0,-6.912 -1.44,-16.128 -8.928,-23.328 -8.256,-7.968 -19.008,-8.832 -25.44,-8.832 h -21.792 v 64.032 z m -6.624,-49.92 h 4.032 c 4.128,0 9.312,0.384 13.248,4.032 3.168,2.976 4.992,8.064 4.992,14.016 0,7.104 -2.784,11.136 -4.896,13.152 -4.32,4.224 -9.984,4.608 -14.016,4.608 h -3.36 z"
         style="font-style:normal;font-variant:normal;font-weight:bold;font-stretch:normal;font-family:'Futura PT';-inkscape-font-specification:'Futura PT Bold';fill:#1a1a1a"
         id="path72" />
    </g>
    <flowRoot
       xml:space="preserve"
       id="flowRoot870"
       style="font-style:normal;font-variant:normal;font-weight:bold;font-stretch:normal;font-size:96px;line-height:126.99999809%;font-family:'Bebas Neue';-inkscape-font-specification:'Bebas Neue, Bold';font-variant-ligatures:normal;font-variant-caps:normal;font-variant-numeric:normal;font-feature-settings:normal;text-align:start;letter-spacing:0px;word-spacing:0px;writing-mode:lr-tb;text-anchor:start;fill:#000000;fill-opacity:1;stroke:none;stroke-width:1px;stroke-linecap:butt;stroke-linejoin:miter;stroke-opacity:1"
       transform="matrix(0.26458333,0,0,0.26458333,36.9725,100.91151)"><flowRegion
         id="flowRegion872"><rect
           id="rect874"
           width="616.50873"
           height="96.12233"
           x="4.4194174"
           y="176.78699" /></flowRegion><flowPara
         id="flowPara876">Portfolio</flowPara></flowRoot>    <g
       aria-label="Portfolio"
       transform="matrix(0.1624135,0,0,0.1624135,167.70404,116.88887)"
       style="font-style:normal;font-variant:normal;font-weight:bold;font-stretch:normal;font-size:96px;line-height:126.99999809%;font-family:'Bebas Neue';-inkscape-font-specification:'Bebas Neue, Bold';font-variant-ligatures:normal;font-variant-caps:normal;font-variant-numeric:normal;font-feature-settings:normal;text-align:start;letter-spacing:0px;word-spacing:0px;writing-mode:lr-tb;text-anchor:start;fill:#4d4d4d;fill-opacity:1;stroke:none;stroke-width:1px;stroke-linecap:butt;stroke-linejoin:miter;stroke-opacity:1"
       id="flowRoot878">
      <path
         d="m -116.16797,224.18868 q 0,10.40625 -7.125,16.03125 -7.07812,5.57812 -20.29687,5.57812 h -8.0625 v 26.95313 h -7.96875 v -68.53125 h 17.76562 q 25.6875,0 25.6875,19.96875 z m -35.48437,14.76562 h 7.17187 q 10.59375,0 15.32813,-3.42187 4.73437,-3.42188 4.73437,-10.96875 0,-6.79688 -4.45312,-10.125 -4.45313,-3.32813 -13.875,-3.32813 h -8.90625 z"
         style="font-style:normal;font-variant:normal;font-weight:normal;font-stretch:normal;font-family:'Open Sans';-inkscape-font-specification:'Open Sans';fill:#4d4d4d"
         id="path43" />
      <path
         d="m -58.699219,247.0168 q 0,12.5625 -6.328125,19.64063 -6.328125,7.03125 -17.484375,7.03125 -6.890625,0 -12.234375,-3.23438 -5.343746,-3.23437 -8.249996,-9.28125 -2.90625,-6.04687 -2.90625,-14.15625 0,-12.5625 6.281246,-19.54687 6.28125,-7.03125 17.4375,-7.03125 10.78125,0 17.109375,7.17187 6.375,7.17188 6.375,19.40625 z m -39.140625,0 q 0,9.84375 3.9375,15 3.9375,5.15625 11.578125,5.15625 7.640625,0 11.578125,-5.10937 3.984375,-5.15625 3.984375,-15.04688 0,-9.79687 -3.984375,-14.85937 -3.9375,-5.10938 -11.671875,-5.10938 -7.640625,0 -11.53125,5.01563 -3.890625,5.01562 -3.890625,14.95312 z"
         style="font-style:normal;font-variant:normal;font-weight:normal;font-stretch:normal;font-family:'Open Sans';-inkscape-font-specification:'Open Sans';fill:#4d4d4d"
         id="path45" />
      <path
         d="m -21.667969,220.43868 q 3.421875,0 6.140625,0.5625 l -1.078125,7.21875 q -3.1875,-0.70313 -5.625,-0.70313 -6.234375,0 -10.6875,5.0625 -4.40625,5.0625 -4.40625,12.60938 v 27.5625 h -7.78125 v -51.375 h 6.421875 l 0.890625,9.51562 h 0.375 q 2.859375,-5.01562 6.890625,-7.73437 4.03125,-2.71875 8.859375,-2.71875 z"
         style="font-style:normal;font-variant:normal;font-weight:normal;font-stretch:normal;font-family:'Open Sans';-inkscape-font-specification:'Open Sans';fill:#4d4d4d"
         id="path47" />
      <path
         d="m 10.675781,267.2668 q 2.0625,0 3.984375,-0.28125 1.921875,-0.32812 3.046875,-0.65625 v 5.95313 q -1.265625,0.60937 -3.75,0.98437 -2.4375,0.42188 -4.4062497,0.42188 -14.90625,0 -14.90625,-15.70313 v -30.5625 h -7.3593753 v -3.75 l 7.3593753,-3.23437 3.2812499,-10.96875 h 4.5000001 v 11.90625 H 17.332031 v 6.04687 H 2.4257813 v 30.23438 q 0,4.64062 2.2031249,7.125 2.203125,2.48437 6.0468748,2.48437 z"
         style="font-style:normal;font-variant:normal;font-weight:normal;font-stretch:normal;font-family:'Open Sans';-inkscape-font-specification:'Open Sans';fill:#4d4d4d"
         id="path49" />
      <path
         d="M 51.175781,227.42305 H 38.097656 v 45.32813 h -7.78125 v -45.32813 h -9.1875 v -3.51562 l 9.1875,-2.8125 v -2.85938 q 0,-18.9375 16.546875,-18.9375 4.078125,0 9.5625,1.64063 l -2.015625,6.23437 q -4.5,-1.45312 -7.6875,-1.45312 -4.40625,0 -6.515625,2.95312 -2.109375,2.90625 -2.109375,9.375 v 3.32813 h 13.078125 z"
         style="font-style:normal;font-variant:normal;font-weight:normal;font-stretch:normal;font-family:'Open Sans';-inkscape-font-specification:'Open Sans';fill:#4d4d4d"
         id="path51" />
      <path
         d="m 104.98828,247.0168 q 0,12.5625 -6.328124,19.64063 -6.328125,7.03125 -17.484375,7.03125 -6.890625,0 -12.234375,-3.23438 -5.34375,-3.23437 -8.25,-9.28125 -2.90625,-6.04687 -2.90625,-14.15625 0,-12.5625 6.28125,-19.54687 6.28125,-7.03125 17.4375,-7.03125 10.78125,0 17.109375,7.17187 6.374999,7.17188 6.374999,19.40625 z m -39.140624,0 q 0,9.84375 3.9375,15 3.9375,5.15625 11.578125,5.15625 7.640625,0 11.578125,-5.10937 3.984375,-5.15625 3.984375,-15.04688 0,-9.79687 -3.984375,-14.85937 -3.9375,-5.10938 -11.671875,-5.10938 -7.640625,0 -11.53125,5.01563 -3.890625,5.01562 -3.890625,14.95312 z"
         style="font-style:normal;font-variant:normal;font-weight:normal;font-stretch:normal;font-family:'Open Sans';-inkscape-font-specification:'Open Sans';fill:#4d4d4d"
         id="path53" />
      <path
         d="m 126.36328,272.75118 h -7.78125 v -72.9375 h 7.78125 z"
         style="font-style:normal;font-variant:normal;font-weight:normal;font-stretch:normal;font-family:'Open Sans';-inkscape-font-specification:'Open Sans';fill:#4d4d4d"
         id="path55" />
      <path
         d="m 150.73828,272.75118 h -7.78125 v -51.375 h 7.78125 z m -8.4375,-65.29688 q 0,-2.67187 1.3125,-3.89062 1.3125,-1.26563 3.28125,-1.26563 1.875,0 3.23438,1.26563 1.35937,1.26562 1.35937,3.89062 0,2.625 -1.35937,3.9375 -1.35938,1.26563 -3.23438,1.26563 -1.96875,0 -3.28125,-1.26563 -1.3125,-1.3125 -1.3125,-3.9375 z"
         style="font-style:normal;font-variant:normal;font-weight:normal;font-stretch:normal;font-family:'Open Sans';-inkscape-font-specification:'Open Sans';fill:#4d4d4d"
         id="path57" />
      <path
         d="m 211.67578,247.0168 q 0,12.5625 -6.32812,19.64063 -6.32813,7.03125 -17.48438,7.03125 -6.89062,0 -12.23437,-3.23438 -5.34375,-3.23437 -8.25,-9.28125 -2.90625,-6.04687 -2.90625,-14.15625 0,-12.5625 6.28125,-19.54687 6.28125,-7.03125 17.4375,-7.03125 10.78125,0 17.10937,7.17187 6.375,7.17188 6.375,19.40625 z m -39.14062,0 q 0,9.84375 3.9375,15 3.9375,5.15625 11.57812,5.15625 7.64063,0 11.57813,-5.10937 3.98437,-5.15625 3.98437,-15.04688 0,-9.79687 -3.98437,-14.85937 -3.9375,-5.10938 -11.67188,-5.10938 -7.64062,0 -11.53125,5.01563 -3.89062,5.01562 -3.89062,14.95312 z"
         style="font-style:normal;font-variant:normal;font-weight:normal;font-stretch:normal;font-family:'Open Sans';-inkscape-font-specification:'Open Sans';fill:#4d4d4d"
         id="path59" />
    </g>
  </g>
</svg>
